<?xml version="1.0" encoding="utf-8"?>
<!-- Generator: Adobe Illustrator 16.0.0, SVG Export Plug-In . SVG Version: 6.00 Build 0)  -->
<!DOCTYPE svg PUBLIC "-//W3C//DTD SVG 1.1//EN" "http://www.w3.org/Graphics/SVG/1.1/DTD/svg11.dtd">
<svg version="1.1" id="Layer_1" xmlns="http://www.w3.org/2000/svg" xmlns:xlink="http://www.w3.org/1999/xlink" x="0px" y="0px"
	 width="100px" height="100px" viewBox="0 0 100 100" enable-background="new 0 0 100 100" xml:space="preserve">
<rect x="5" y="20" fill="#E33D3A" width="89.833" height="30.5"/>
<rect x="5" y="50.5" fill="#009A49" width="90" height="29.5"/>
<rect x="4.833" y="38.501" fill="#FFFFFF" width="90.333" height="24.667"/>
<path fill="#87CEEB" d="M65.459,50.726c0,8.473-6.869,15.343-15.342,15.343c-8.476,0-15.345-6.87-15.345-15.343
	c0-8.475,6.87-15.345,15.345-15.345C58.59,35.38,65.459,42.25,65.459,50.726z"/>
<path fill="#FDBB30" stroke="#B47800" stroke-width="0.1787" d="M37.898,44.388l0.17,0.438l15.637-6.069l-0.17-0.438L37.898,44.388z
	"/>
<path fill="#FDBB30" stroke="#B47800" stroke-width="0.1787" d="M36.891,49.081l0.276,0.38l13.587-9.832l-0.275-0.38L36.891,49.081z
	"/>
<path fill="#FDBB30" stroke="#B47800" stroke-width="0.1787" d="M37.596,53.387l0.345,0.318L49.295,41.36l-0.346-0.318
	L37.596,53.387z"/>
<path fill="#FDBB30" stroke="#B47800" stroke-width="0.1787" d="M39.538,57.79l0.406,0.236l8.442-14.493l-0.406-0.236L39.538,57.79
	L39.538,57.79z"/>
<path fill="#FDBB30" stroke="#B47800" stroke-width="0.1787" d="M42.167,64.291l0.448,0.14l7.619-24.517l-0.449-0.14L42.167,64.291
	L42.167,64.291z"/>
<path fill="#FDBB30" stroke="#B47800" stroke-width="0.1787" d="M47.202,65.349l0.467,0.048l2.602-25.541l-0.467-0.048
	L47.202,65.349L47.202,65.349z"/>
<path fill="#FDBB30" stroke="#B47800" stroke-width="0.1787" d="M41.458,40.254v0.47H58.23v-0.47H41.458z"/>
<path fill="#FDBB30" stroke="#B47800" stroke-width="0.1787" d="M62.334,44.388l-0.17,0.438l-15.635-6.069l0.169-0.438
	L62.334,44.388L62.334,44.388z"/>
<path fill="#FDBB30" stroke="#B47800" stroke-width="0.1787" d="M63.342,49.081l-0.277,0.38l-13.586-9.832l0.275-0.38L63.342,49.081
	z"/>
<path fill="#FDBB30" stroke="#B47800" stroke-width="0.1787" d="M62.637,53.387l-0.346,0.318L50.938,41.36l0.346-0.318
	L62.637,53.387L62.637,53.387z"/>
<path fill="#FDBB30" stroke="#B47800" stroke-width="0.1787" d="M60.693,57.79l-0.406,0.236l-8.441-14.493l0.406-0.236L60.693,57.79
	L60.693,57.79z"/>
<path fill="#FDBB30" stroke="#B47800" stroke-width="0.1787" d="M58.064,64.291l-0.449,0.14l-7.617-24.517l0.449-0.14L58.064,64.291
	L58.064,64.291z"/>
<path fill="#FDBB30" stroke="#B47800" stroke-width="0.1787" d="M53.029,65.349l-0.467,0.048l-2.602-25.541l0.467-0.048
	L53.029,65.349L53.029,65.349z"/>
<path fill="#FDBB30" stroke="#B47800" stroke-width="0.0871" d="M45.033,52.218L55.115,62.3l1.578-1.578L46.611,50.639
	L45.033,52.218z"/>
<path fill="#FDBB30" stroke="#B47800" stroke-width="0.0871" d="M41.519,52.555l1.671,1.672l6.611-6.613l-3.707,0.367L41.519,52.555
	z"/>
<path fill="none" stroke="#B47800" stroke-width="0.1298" d="M41.42,52.521l1.77,1.77l1.926-1.926l10,10.001l1.678-1.678"/>
<path fill="#B47800" d="M50.053,47.495l0.066,0.064l-3.292,3.294l-0.198-0.198l3.131-3.131L50.053,47.495z"/>
<path fill="#FDBB30" stroke="#B47800" stroke-width="0.0871" d="M56.287,49.37c-0.328-0.33-1.996-0.254-2.197-0.057l-7.582,7.436
	c-1.348,1.321-0.678,2.768-0.79,2.88l-2.321,2.319l0.157,0.156l0.153,0.153l2.32-2.319c0.112-0.112,1.558,0.557,2.879-0.79
	l7.435-7.582C56.539,51.364,56.617,49.699,56.287,49.37z"/>
<path fill="none" stroke="#B47800" stroke-width="0.0871" stroke-linecap="round" d="M55.881,49.212l-4.611,4.612"/>
<path fill="none" stroke="#B47800" stroke-width="0.0871" stroke-linecap="round" d="M54.805,49.162l-4.098,4.099"/>
<path fill="none" stroke="#B47800" stroke-width="0.0871" stroke-linecap="round" d="M55.371,49.158l-4.383,4.384"/>
<path fill="none" stroke="#B47800" stroke-width="0.0871" stroke-linecap="round" d="M56.287,49.37l-4.736,4.734"/>
<path fill="none" stroke="#B47800" stroke-width="0.0871" stroke-linecap="round" d="M56.443,49.774l-4.613,4.611"/>
<path fill="none" stroke="#B47800" stroke-width="0.0871" stroke-linecap="round" d="M56.494,50.85l-4.1,4.099"/>
<path fill="none" stroke="#B47800" stroke-width="0.0871" stroke-linecap="round" d="M56.498,50.283l-4.385,4.385"/>
<path fill="#FDBB30" stroke="#B47800" stroke-width="0.0871" d="M50.773,52.62c-1.051,0.719-1.448,2.256-0.523,2.453
	C51.178,55.269,51.438,53.705,50.773,52.62z"/>
<path fill="#FDBB30" stroke="#B47800" stroke-width="0.0871" d="M49.703,53.658c-1.035,0.739-1.408,2.281-0.479,2.461
	C50.154,56.3,50.387,54.731,49.703,53.658z"/>
<path fill="#FDBB30" stroke="#B47800" stroke-width="0.0871" d="M48.666,54.666c-1.022,0.758-1.368,2.306-0.435,2.469
	C49.164,57.3,49.368,55.728,48.666,54.666z"/>
<path fill="#FDBB30" stroke="#B47800" stroke-width="0.0871" d="M47.662,55.644c-1.009,0.775-1.328,2.329-0.393,2.478
	C48.204,58.269,48.381,56.692,47.662,55.644z"/>
<path fill="#FDBB30" stroke="#B47800" stroke-width="0.0871" d="M46.689,56.593c-0.995,0.793-1.286,2.352-0.349,2.482
	C47.278,59.208,47.428,57.628,46.689,56.593z"/>
<path fill="#FDBB30" stroke="#B47800" stroke-width="0.0871" d="M53.035,54.884c-0.721,1.048-2.256,1.447-2.451,0.521
	C50.387,54.479,51.951,54.219,53.035,54.884z"/>
<path fill="#FDBB30" stroke="#B47800" stroke-width="0.0871" d="M51.998,55.953c-0.74,1.035-2.281,1.408-2.463,0.479
	C49.355,55.501,50.924,55.269,51.998,55.953z"/>
<path fill="#FDBB30" stroke="#B47800" stroke-width="0.0871" d="M50.988,56.99c-0.756,1.022-2.304,1.367-2.468,0.436
	C48.355,56.493,49.928,56.287,50.988,56.99z"/>
<path fill="#FDBB30" stroke="#B47800" stroke-width="0.0871" d="M50.012,57.995c-0.774,1.008-2.329,1.327-2.477,0.392
	S48.963,57.274,50.012,57.995z"/>
<path fill="#FDBB30" stroke="#B47800" stroke-width="0.0871" d="M49.063,58.966c-0.792,0.997-2.352,1.287-2.483,0.35
	S48.027,58.228,49.063,58.966z"/>
<path fill="#FDBB30" stroke="#B47800" stroke-width="0.0871" d="M53.17,52.487c-1.27,0.033-2.441,1.104-1.771,1.773
	C52.066,54.929,53.137,53.758,53.17,52.487z"/>
<path fill="#FDBB30" stroke="#B47800" stroke-width="0.0871" d="M51.869,53.784c-1.271,0.036-2.441,1.105-1.771,1.773
	C50.766,56.229,51.836,55.058,51.869,53.784z"/>
<path fill="#FDBB30" stroke="#B47800" stroke-width="0.0871" d="M50.57,55.087c-1.272,0.032-2.443,1.104-1.773,1.772
	C49.467,57.528,50.535,56.358,50.57,55.087z"/>
<path fill="#FDBB30" stroke="#B47800" stroke-width="0.0871" d="M49.271,56.386c-1.272,0.034-2.443,1.103-1.773,1.772
	C48.165,58.829,49.236,57.658,49.271,56.386z"/>
<path fill="#FDBB30" stroke="#B47800" stroke-width="0.0871" d="M47.969,57.686c-1.271,0.034-2.442,1.104-1.773,1.773
	C46.866,60.128,47.936,58.958,47.969,57.686z"/>
<path fill="#FDBB30" stroke="#B47800" stroke-width="0.0871" d="M41.159,65.974c-5.657-4.251-7.842-9.361-7.796-14.206
	c0.084-9.022,6.443-16.982,16.659-16.982v0.884c-5.887,1.81-9.578,8.86-9.64,14.859c-0.059,5.813,2.503,11.952,6.697,15.445H41.159z
	"/>
<path fill="none" stroke="#B47800" stroke-width="0.268" d="M38.17,46.584c1.702-5.544,6.175-11.02,11.818-11.41"/>
<path fill="none" stroke="#B47800" stroke-width="0.268" d="M38.935,46.694c1.775-6.308,6.542-10.967,11.055-11.381"/>
<path fill="none" stroke="#B47800" stroke-width="0.268" d="M39,53.648c-1.061-9.85,6.113-17.92,10.834-18.045"/>
<path fill="none" stroke="#B47800" stroke-width="0.268" d="M49.99,35.616c-6.048,1.191-11.144,9.299-10.205,18.198"/>
<path fill="none" stroke="#B47800" stroke-width="0.268" d="M38.262,44.46c1.501-3.526,5.746-9.393,11.729-9.409"/>
<path fill="none" stroke="#B47800" stroke-width="0.268" d="M36.863,46.122c1.181-3.387,3.3-6.37,6.004-8.612
	c2.012-1.668,4.458-2.606,6.607-2.606"/>
<path fill="none" stroke="#B47800" stroke-width="0.268" d="M36.358,45.502c1.776-4.28,5.99-9.737,11.312-10.569"/>
<path fill="none" stroke="#B47800" stroke-width="0.268" d="M35.039,54.199c-0.793-3.809-0.475-11.344,6.933-16.911
	c0.692-0.521,2.118-1.49,3.608-1.96"/>
<path fill="none" stroke="#B47800" stroke-width="0.268" d="M34.158,53.829c-0.982-5.658,1.551-12.851,7.63-16.739
	c0.511-0.327,1.205-0.799,2.243-1.28"/>
<path fill="#FDBB30" stroke="#B47800" stroke-width="0.268" d="M39.662,52.541c0.604,1.222,0.152,3.657-0.774,3.426
	C37.963,55.734,38.554,53.332,39.662,52.541z"/>
<path fill="#FDBB30" stroke="#B47800" stroke-width="0.268" d="M39.936,54.711c0.818,1.089,0.804,3.458-0.147,3.4
	C38.835,58.053,38.993,55.693,39.936,54.711z"/>
<path fill="#FDBB30" stroke="#B47800" stroke-width="0.268" d="M40.445,56.861c1.005,0.92,1.332,3.21,0.385,3.329
	C39.883,60.308,39.699,58.002,40.445,56.861z"/>
<path fill="#FDBB30" stroke="#B47800" stroke-width="0.268" d="M41.372,59.214c1.087,0.818,1.546,2.541,0.615,2.749
	C41.057,62.173,40.738,60.419,41.372,59.214z"/>
<path fill="#FDBB30" stroke="#B47800" stroke-width="0.268" d="M42.496,61.122c1.108,0.793,1.611,2.501,0.686,2.733
	C42.256,64.089,41.893,62.343,42.496,61.122z"/>
<path fill="#FDBB30" stroke="#B47800" stroke-width="0.268" d="M38.98,46.127c-1.308,0.381-2.58,2.172-1.783,2.696
	C37.994,49.349,39.146,47.479,38.98,46.127L38.98,46.127z"/>
<path fill="#FDBB30" stroke="#B47800" stroke-width="0.268" d="M38.417,48.263c-1.206,0.635-2.123,2.682-1.238,3.038
	C38.064,51.655,38.849,49.556,38.417,48.263z"/>
<path fill="#FDBB30" stroke="#B47800" stroke-width="0.268" d="M38.193,50.634c-1.134,0.754-1.769,2.891-0.852,3.152
	C38.258,54.046,38.756,51.873,38.193,50.634z"/>
<path fill="#FDBB30" stroke="#B47800" stroke-width="0.268" d="M38.277,52.932c-0.983,0.943-1.235,3.216-0.286,3.313
	C38.941,56.342,39.049,54.054,38.277,52.932z"/>
<path fill="#FDBB30" stroke="#B47800" stroke-width="0.268" d="M38.742,55.318c-0.862,1.056-0.865,3.518,0.088,3.498
	C39.784,58.798,39.645,56.338,38.742,55.318z"/>
<path fill="#FDBB30" stroke="#B47800" stroke-width="0.268" d="M39.495,57.54c-0.771,1.123-0.579,3.799,0.371,3.7
	C40.814,61.141,40.479,58.481,39.495,57.54z"/>
<path fill="#FDBB30" stroke="#B47800" stroke-width="0.268" d="M40.413,59.631c-0.592,1.228-0.047,3.461,0.876,3.22
	C42.213,62.611,41.528,60.412,40.413,59.631z"/>
<path fill="#FDBB30" stroke="#B47800" stroke-width="0.268" d="M41.55,61.454c-0.401,1.301,0.236,2.966,1.113,2.589
	C43.54,63.667,42.771,62.06,41.55,61.454z"/>
<path fill="#FDBB30" stroke="#B47800" stroke-width="0.268" d="M34.161,53.729c1.307,0.385,2.696,2.302,1.899,2.825
	C35.261,57.077,33.992,55.081,34.161,53.729z"/>
<path fill="#FDBB30" stroke="#B47800" stroke-width="0.268" d="M34.48,55.298c1.327,0.309,2.731,1.997,1.963,2.564
	C35.676,58.428,34.387,56.656,34.48,55.298z"/>
<path fill="#FDBB30" stroke="#B47800" stroke-width="0.268" d="M34.975,57.063c1.346,0.21,2.995,1.878,2.272,2.499
	C36.524,60.186,34.985,58.425,34.975,57.063z"/>
<path fill="#FDBB30" stroke="#B47800" stroke-width="0.268" d="M35.988,59.205c1.359,0.077,3.008,1.53,2.35,2.222
	C37.68,62.116,36.13,60.559,35.988,59.205z"/>
<path fill="#FDBB30" stroke="#B47800" stroke-width="0.268" d="M37.282,61.331c1.361-0.062,2.955,1.062,2.371,1.816
	C39.068,63.902,37.562,62.663,37.282,61.331z"/>
<path fill="#FDBB30" stroke="#B47800" stroke-width="0.268" d="M38.944,63.334c1.338-0.255,2.922,0.561,2.452,1.39
	C40.927,65.554,39.413,64.614,38.944,63.334z"/>
<path fill="#FDBB30" stroke="#B47800" stroke-width="0.268" d="M36.522,45.311c0.82,1.088,0.809,3.59-0.144,3.533
	C35.427,48.788,35.581,46.295,36.522,45.311z"/>
<path fill="#FDBB30" stroke="#B47800" stroke-width="0.268" d="M35.846,47.954c1.021,0.902,1.477,3.297,0.532,3.432
	C35.433,51.522,35.119,49.106,35.846,47.954L35.846,47.954z"/>
<path fill="#FDBB30" stroke="#B47800" stroke-width="0.268" d="M35.604,50.59c1.108,0.792,1.832,3.154,0.906,3.388
	C35.584,54.209,35,51.812,35.604,50.59L35.604,50.59z"/>
<path fill="#FDBB30" stroke="#B47800" stroke-width="0.268" d="M35.721,53.344c1.23,0.586,2.384,2.759,1.513,3.149
	C36.364,56.885,35.341,54.652,35.721,53.344z"/>
<path fill="#FDBB30" stroke="#B47800" stroke-width="0.268" d="M36.255,56.038c1.292,0.43,2.606,2.383,1.789,2.877
	C37.228,59.408,36.036,57.382,36.255,56.038z"/>
<path fill="#FDBB30" stroke="#B47800" stroke-width="0.268" d="M37.047,58.567c1.335,0.271,3.039,2.064,2.288,2.653
	S36.994,59.929,37.047,58.567z"/>
<path fill="#FDBB30" stroke="#B47800" stroke-width="0.268" d="M38.162,60.909c1.357,0.119,3.188,1.684,2.509,2.354
	C39.992,63.934,38.262,62.269,38.162,60.909z"/>
<path fill="#FDBB30" stroke="#B47800" stroke-width="0.268" d="M39.517,63.056c1.359-0.085,2.829,0.922,2.258,1.688
	C41.205,65.507,39.821,64.383,39.517,63.056z"/>
<path fill="#FDBB30" stroke="#B47800" stroke-width="0.268" d="M38.51,43.847c0.409,1.299-0.339,3.305-1.217,2.933
	C36.414,46.409,37.294,44.459,38.51,43.847z"/>
<path fill="#FDBB30" stroke="#B47800" stroke-width="0.268" d="M37.774,45.65c0.511,1.263,0.04,3.738-0.866,3.438
	C36.002,48.788,36.609,46.357,37.774,45.65L37.774,45.65z"/>
<path fill="#FDBB30" stroke="#B47800" stroke-width="0.268" d="M37.14,48.037c0.752,1.137,0.677,3.864-0.271,3.751
	C35.922,51.674,36.14,48.962,37.14,48.037L37.14,48.037z"/>
<path fill="#FDBB30" stroke="#B47800" stroke-width="0.268" d="M36.9,50.539c0.865,1.052,1.128,3.542,0.175,3.526
	C36.121,54.05,36,51.562,36.9,50.539z"/>
<path fill="#FDBB30" stroke="#B47800" stroke-width="0.268" d="M36.987,53.066c1.037,0.885,1.635,3.35,0.693,3.503
	C36.739,56.722,36.282,54.232,36.987,53.066z"/>
<path fill="#FDBB30" stroke="#B47800" stroke-width="0.268" d="M37.5,55.63c1.136,0.752,2.079,3.251,1.163,3.517
	C37.746,59.411,36.941,56.872,37.5,55.63z"/>
<path fill="#FDBB30" d="M38.584,57.965c0.074,1.194,2.376,4.447,2.839,4.995l-0.071,0.438l-0.311,0.078
	c-1.655-2.114-2.377-3.66-3.223-5.29L38.584,57.965z"/>
<path fill="none" stroke="#B47800" stroke-width="0.268" stroke-linecap="round" d="M38.947,58.902
	c0.404,1.535,1.276,2.478,2.448,4.128"/>
<path fill="none" stroke="#B47800" stroke-width="0.268" stroke-linecap="round" d="M38.135,58.999
	c0.871,1.772,1.627,2.806,2.883,4.428"/>
<path fill="#FDBB30" stroke="#B47800" stroke-width="0.0871" d="M59.074,65.974c5.656-4.251,7.84-9.361,7.795-14.206
	c-0.084-9.022-6.443-16.982-16.658-16.982v0.884c5.887,1.81,9.578,8.86,9.639,14.859c0.059,5.813-2.502,11.952-6.695,15.445H59.074z
	"/>
<path fill="none" stroke="#B47800" stroke-width="0.268" d="M62.062,46.584c-1.703-5.544-6.176-11.02-11.818-11.41"/>
<path fill="none" stroke="#B47800" stroke-width="0.268" d="M61.297,46.694c-1.773-6.308-6.543-10.967-11.055-11.381"/>
<path fill="none" stroke="#B47800" stroke-width="0.268" d="M61.232,53.648c1.062-9.85-6.113-17.92-10.836-18.045"/>
<path fill="none" stroke="#B47800" stroke-width="0.268" d="M50.242,35.616c6.047,1.191,11.145,9.299,10.205,18.198"/>
<path fill="none" stroke="#B47800" stroke-width="0.268" d="M61.969,44.46c-1.5-3.526-5.744-9.393-11.727-9.409"/>
<path fill="none" stroke="#B47800" stroke-width="0.268" d="M63.369,46.122c-1.182-3.387-3.299-6.37-6.004-8.612
	c-2.012-1.668-4.457-2.606-6.607-2.606"/>
<path fill="none" stroke="#B47800" stroke-width="0.268" d="M63.875,45.502c-1.777-4.28-5.992-9.737-11.312-10.569"/>
<path fill="none" stroke="#B47800" stroke-width="0.268" d="M65.193,54.199c0.793-3.809,0.475-11.344-6.934-16.911
	c-0.691-0.521-2.117-1.49-3.607-1.96"/>
<path fill="none" stroke="#B47800" stroke-width="0.268" d="M66.074,53.829c0.982-5.658-1.553-12.851-7.631-16.739
	c-0.512-0.327-1.205-0.799-2.242-1.28"/>
<path fill="#FDBB30" stroke="#B47800" stroke-width="0.268" d="M60.57,52.541c-0.604,1.222-0.152,3.657,0.773,3.426
	C62.27,55.734,61.68,53.332,60.57,52.541z"/>
<path fill="#FDBB30" stroke="#B47800" stroke-width="0.268" d="M60.297,54.711c-0.818,1.089-0.805,3.458,0.146,3.4
	C61.396,58.053,61.24,55.693,60.297,54.711z"/>
<path fill="#FDBB30" stroke="#B47800" stroke-width="0.268" d="M59.787,56.861c-1.006,0.92-1.332,3.21-0.385,3.329
	C60.348,60.308,60.533,58.002,59.787,56.861z"/>
<path fill="#FDBB30" stroke="#B47800" stroke-width="0.268" d="M58.859,59.214c-1.086,0.818-1.545,2.541-0.615,2.749
	C59.176,62.173,59.494,60.419,58.859,59.214z"/>
<path fill="#FDBB30" stroke="#B47800" stroke-width="0.268" d="M57.736,61.122c-1.109,0.793-1.611,2.501-0.686,2.733
	C57.975,64.089,58.34,62.343,57.736,61.122z"/>
<path fill="#FDBB30" stroke="#B47800" stroke-width="0.268" d="M61.252,46.127c1.309,0.381,2.58,2.172,1.783,2.696
	C62.238,49.349,61.086,47.479,61.252,46.127L61.252,46.127z"/>
<path fill="#FDBB30" stroke="#B47800" stroke-width="0.268" d="M61.816,48.263c1.205,0.635,2.123,2.682,1.238,3.038
	C62.168,51.655,61.383,49.556,61.816,48.263z"/>
<path fill="#FDBB30" stroke="#B47800" stroke-width="0.268" d="M62.039,50.634c1.133,0.754,1.77,2.891,0.852,3.152
	C61.973,54.046,61.477,51.873,62.039,50.634z"/>
<path fill="#FDBB30" stroke="#B47800" stroke-width="0.268" d="M61.955,52.932c0.982,0.943,1.234,3.216,0.285,3.313
	C61.291,56.342,61.182,54.054,61.955,52.932z"/>
<path fill="#FDBB30" stroke="#B47800" stroke-width="0.268" d="M61.49,55.318c0.861,1.056,0.865,3.518-0.09,3.498
	C60.447,58.799,60.588,56.338,61.49,55.318z"/>
<path fill="#FDBB30" stroke="#B47800" stroke-width="0.268" d="M60.738,57.54c0.77,1.123,0.578,3.799-0.371,3.7
	C59.418,61.141,59.752,58.481,60.738,57.54z"/>
<path fill="#FDBB30" stroke="#B47800" stroke-width="0.268" d="M59.82,59.631c0.592,1.228,0.045,3.461-0.879,3.22
	C58.02,62.611,58.703,60.412,59.82,59.631z"/>
<path fill="#FDBB30" stroke="#B47800" stroke-width="0.268" d="M58.682,61.454c0.4,1.301-0.236,2.966-1.113,2.589
	C56.691,63.667,57.461,62.06,58.682,61.454z"/>
<path fill="#FDBB30" stroke="#B47800" stroke-width="0.268" d="M66.072,53.729c-1.307,0.385-2.697,2.302-1.9,2.825
	C64.971,57.077,66.242,55.081,66.072,53.729z"/>
<path fill="#FDBB30" stroke="#B47800" stroke-width="0.268" d="M65.752,55.298c-1.326,0.309-2.732,1.997-1.963,2.564
	C64.557,58.428,65.844,56.656,65.752,55.298z"/>
<path fill="#FDBB30" stroke="#B47800" stroke-width="0.268" d="M65.256,57.063c-1.344,0.21-2.994,1.878-2.271,2.499
	C63.707,60.186,65.248,58.425,65.256,57.063z"/>
<path fill="#FDBB30" stroke="#B47800" stroke-width="0.268" d="M64.244,59.205c-1.359,0.077-3.008,1.53-2.35,2.222
	C62.553,62.116,64.102,60.559,64.244,59.205z"/>
<path fill="#FDBB30" stroke="#B47800" stroke-width="0.268" d="M62.949,61.331c-1.359-0.062-2.953,1.062-2.369,1.816
	C61.164,63.902,62.67,62.663,62.949,61.331z"/>
<path fill="#FDBB30" stroke="#B47800" stroke-width="0.268" d="M61.287,63.334c-1.336-0.255-2.922,0.561-2.451,1.39
	C59.307,65.554,60.82,64.614,61.287,63.334z"/>
<path fill="#FDBB30" stroke="#B47800" stroke-width="0.268" d="M63.709,45.311c-0.82,1.088-0.809,3.59,0.145,3.533
	C64.805,48.788,64.65,46.295,63.709,45.311z"/>
<path fill="#FDBB30" stroke="#B47800" stroke-width="0.268" d="M64.387,47.954c-1.021,0.902-1.477,3.297-0.531,3.432
	C64.799,51.522,65.113,49.106,64.387,47.954L64.387,47.954z"/>
<path fill="#FDBB30" stroke="#B47800" stroke-width="0.268" d="M64.627,50.59c-1.107,0.792-1.83,3.154-0.904,3.388
	C64.648,54.209,65.232,51.812,64.627,50.59L64.627,50.59z"/>
<path fill="#FDBB30" stroke="#B47800" stroke-width="0.268" d="M64.512,53.344c-1.23,0.586-2.385,2.759-1.514,3.149
	C63.867,56.885,64.891,54.652,64.512,53.344z"/>
<path fill="#FDBB30" stroke="#B47800" stroke-width="0.268" d="M63.977,56.038c-1.291,0.43-2.605,2.383-1.787,2.877
	C63.004,59.408,64.195,57.382,63.977,56.038z"/>
<path fill="#FDBB30" stroke="#B47800" stroke-width="0.268" d="M63.186,58.567c-1.336,0.271-3.039,2.064-2.289,2.653
	C61.648,61.81,63.238,59.929,63.186,58.567z"/>
<path fill="#FDBB30" stroke="#B47800" stroke-width="0.268" d="M62.07,60.909c-1.357,0.119-3.189,1.684-2.51,2.354
	S61.969,62.269,62.07,60.909z"/>
<path fill="#FDBB30" stroke="#B47800" stroke-width="0.268" d="M60.715,63.056c-1.359-0.085-2.828,0.922-2.258,1.688
	C59.027,65.507,60.412,64.383,60.715,63.056z"/>
<path fill="#FDBB30" stroke="#B47800" stroke-width="0.268" d="M61.721,43.847c-0.408,1.299,0.34,3.305,1.219,2.933
	C63.818,46.409,62.939,44.459,61.721,43.847z"/>
<path fill="#FDBB30" stroke="#B47800" stroke-width="0.268" d="M62.459,45.65c-0.512,1.263-0.041,3.738,0.865,3.438
	C64.23,48.788,63.623,46.357,62.459,45.65L62.459,45.65z"/>
<path fill="#FDBB30" stroke="#B47800" stroke-width="0.268" d="M63.092,48.037c-0.752,1.137-0.676,3.864,0.271,3.751
	C64.311,51.674,64.092,48.962,63.092,48.037L63.092,48.037z"/>
<path fill="#FDBB30" stroke="#B47800" stroke-width="0.268" d="M63.332,50.539c-0.863,1.052-1.129,3.542-0.174,3.526
	C64.111,54.05,64.232,51.562,63.332,50.539z"/>
<path fill="#FDBB30" stroke="#B47800" stroke-width="0.268" d="M63.244,53.066c-1.037,0.885-1.635,3.35-0.693,3.503
	C63.494,56.722,63.949,54.232,63.244,53.066z"/>
<path fill="#FDBB30" stroke="#B47800" stroke-width="0.268" d="M62.732,55.63c-1.137,0.752-2.08,3.251-1.162,3.517
	C62.486,59.411,63.291,56.872,62.732,55.63z"/>
<path fill="#FDBB30" d="M61.648,57.965c-0.076,1.194-2.377,4.447-2.84,4.995l0.072,0.438l0.309,0.078
	c1.656-2.114,2.377-3.66,3.225-5.29L61.648,57.965z"/>
<path fill="none" stroke="#B47800" stroke-width="0.268" stroke-linecap="round" d="M61.285,58.902
	c-0.402,1.535-1.275,2.478-2.447,4.128"/>
<path fill="none" stroke="#B47800" stroke-width="0.268" stroke-linecap="round" d="M62.098,58.999
	c-0.871,1.772-1.627,2.806-2.883,4.428"/>
<path fill="#FDBB30" stroke="#B47800" stroke-width="0.0961" d="M40.168,64.6c-0.88,0.079-1.511,0.202-2.302,0.484
	c0.572,1.795,0.392,3.63,0.188,5.465c1.835-0.285,3.681-0.541,5.762-0.173v-1.188v-4.839L40.168,64.6z"/>
<path fill="#009A49" d="M38.64,68.75l-0.11,1.305c0.534-0.122,2.128-0.205,2.76-0.286l1.998,0.058
	c-0.398-0.249-0.847-0.465-1.392-0.609l-1.627-0.285l0.633-0.573C40.183,68.332,39.213,68.578,38.64,68.75L38.64,68.75z"/>
<path fill="#E33D3A" d="M38.411,65.371l0.205,1.205c0.417-0.192,1.059-0.254,1.69-0.335l-0.005-1.219
	C39.593,65.08,38.983,65.199,38.411,65.371z"/>
<path fill="none" stroke="#B47800" stroke-width="0.0961" d="M43.252,64.902l-3.016,0.137c-0.7,0.062-1.242,0.153-1.832,0.33
	l-0.062,0.016"/>
<path fill="#FFFFFF" d="M38.678,67.023l-0.005,1.275c0.417-0.192,1.314-0.337,1.946-0.419l-0.006-1.217
	C39.905,66.721,39.25,66.851,38.678,67.023z"/>
<path fill="none" stroke="#B47800" stroke-width="0.0961" d="M43.36,66.113l-2.868,0.129c-0.719,0.066-1.272,0.159-1.883,0.347"/>
<path fill="none" stroke="#B47800" stroke-width="0.0961" d="M43.424,66.552l-2.863,0.129c-0.728,0.065-1.285,0.16-1.903,0.352"/>
<path fill="none" stroke="#B47800" stroke-width="0.0961" d="M38.458,70.038l0.059,0.009c1.539-0.231,3.182-0.396,4.893-0.173
	c-1.078-0.705-2.379-0.934-3.711-0.857"/>
<path fill="none" stroke="#B47800" stroke-width="0.0961" d="M43.38,67.768l-2.577,0.115c-0.827,0.075-1.435,0.188-2.161,0.437"/>
<path fill="none" stroke="#B47800" stroke-width="0.0961" d="M43.441,68.206l-2.569,0.116c-0.855,0.077-1.476,0.194-2.236,0.462"/>
<path fill="none" stroke="#B47800" stroke-width="0.0961" d="M38.402,65.367c0.102,0.394,0.171,0.789,0.214,1.185
	c0.003,0.036,0.01,0.057,0.021,0.093 M38.647,66.971c0.005,0.026,0.006,0.021,0.008,0.045c0.026,0.429,0.024,0.86,0.007,1.292
	c0,0.023-0.004,0.044,0.006,0.069 M38.628,68.721c0.011,0.036,0.009,0.021,0.007,0.054c-0.028,0.415-0.069,0.831-0.113,1.247"/>
<path fill="#FDBB30" stroke="#B47800" stroke-width="0.0961" d="M45.737,63.362c-0.924,0-2.001,0.016-3.522,0.022
	c-0.724,0.012-1.535,0.079-2.46,0.228v5.398c2.836-0.453,4.564,0.029,5.982,0.37V63.362z"/>
<path fill="#FFFFFF" d="M45.536,65.859c-1.074-0.234-2.196-0.439-3.062-0.376c-0.767-0.005-1.53,0.054-2.289,0.166v1.22
	c0.802-0.123,1.604-0.158,2.405-0.171c0.773-0.031,1.852,0.16,2.902,0.378"/>
<path fill="#E33D3A" d="M45.583,64.203c-1.089-0.235-2.229-0.444-3.109-0.38c-0.767-0.006-1.53,0.053-2.289,0.165v1.222
	c0.802-0.125,1.604-0.16,2.406-0.173c0.788-0.031,1.896,0.167,2.966,0.394"/>
<path fill="none" stroke="#B47800" stroke-width="0.0961" d="M45.502,64.179c-0.893-0.204-1.936-0.376-3.287-0.354
	c-0.608,0.01-1.277,0.059-2.025,0.161"/>
<path fill="#009A49" d="M41.619,67.828c-1.171-0.548,1.503-0.782-0.357-0.644c-0.767-0.007-0.317,0.008-1.077,0.12v1.222
	c0.802-0.123,1.604-0.123,2.405-0.137c1.247,0.157,1.554,0.144,2.622,0.487C44.894,68.318,43.159,67.95,41.619,67.828z"/>
<path fill="none" stroke="#B47800" stroke-width="0.0961" d="M40.194,63.924v1.271 M40.194,65.639v1.217 M40.194,67.298v1.188"/>
<path fill="none" stroke="#B47800" stroke-width="0.0961" d="M40.13,67.293h0.062c2.324-0.319,3.902-0.116,5.173,0.161"/>
<path fill="none" stroke="#B47800" stroke-width="0.0961" d="M40.13,66.854h0.063c0.745-0.103,1.415-0.152,2.021-0.161
	c1.273-0.021,2.273,0.131,3.131,0.32"/>
<path fill="none" stroke="#B47800" stroke-width="0.0961" d="M40.13,65.639h0.06c2.359-0.324,3.951-0.111,5.232,0.175"/>
<path fill="none" stroke="#B47800" stroke-width="0.0961" d="M40.13,65.2h0.069c0.744-0.103,1.411-0.151,2.016-0.16
	c1.32-0.021,2.346,0.143,3.225,0.34"/>
<path fill="none" stroke="#B47800" stroke-width="0.0961" d="M40.13,68.507h0.062c0.747-0.101,1.388-0.128,2.026-0.104
	c1.222,0.052,2.268,0.165,3.074,0.498c-0.995-0.953-2.574-1.021-4.099-1.049"/>
<path fill="#FDBB30" stroke="#B47800" stroke-width="0.0961" d="M60.064,64.6c0.879,0.079,1.51,0.202,2.301,0.484
	c-0.572,1.795-0.393,3.63-0.188,5.465c-1.836-0.285-3.682-0.541-5.762-0.173v-1.188v-4.839L60.064,64.6z"/>
<path fill="#009A49" d="M61.592,68.75l0.111,1.305c-0.535-0.122-2.129-0.205-2.76-0.286l-1.998,0.058
	c0.396-0.249,0.846-0.465,1.391-0.609l1.627-0.285l-0.633-0.573C60.049,68.332,61.02,68.578,61.592,68.75L61.592,68.75z"/>
<path fill="#E33D3A" d="M61.822,65.371l-0.207,1.205c-0.416-0.192-1.057-0.254-1.689-0.335l0.006-1.219
	C60.639,65.08,61.25,65.199,61.822,65.371z"/>
<path fill="none" stroke="#B47800" stroke-width="0.0961" d="M56.98,64.902l3.016,0.137c0.699,0.062,1.242,0.153,1.832,0.33
	l0.062,0.016"/>
<path fill="#FFFFFF" d="M61.555,67.023l0.006,1.275c-0.418-0.192-1.314-0.337-1.947-0.419l0.008-1.217
	C60.328,66.721,60.982,66.851,61.555,67.023z"/>
<path fill="none" stroke="#B47800" stroke-width="0.0961" d="M56.871,66.113l2.869,0.129c0.719,0.066,1.273,0.159,1.885,0.347"/>
<path fill="none" stroke="#B47800" stroke-width="0.0961" d="M56.809,66.552l2.863,0.129c0.727,0.065,1.285,0.16,1.902,0.352"/>
<path fill="none" stroke="#B47800" stroke-width="0.0961" d="M61.775,70.038l-0.059,0.009c-1.539-0.231-3.184-0.396-4.893-0.173
	c1.078-0.705,2.377-0.934,3.711-0.857"/>
<path fill="none" stroke="#B47800" stroke-width="0.0961" d="M56.852,67.768l2.576,0.115c0.828,0.075,1.438,0.188,2.162,0.437"/>
<path fill="none" stroke="#B47800" stroke-width="0.0961" d="M56.791,68.206l2.57,0.116c0.855,0.077,1.475,0.194,2.234,0.462"/>
<path fill="none" stroke="#B47800" stroke-width="0.0961" d="M61.83,65.367c-0.102,0.394-0.17,0.789-0.215,1.185
	c-0.002,0.036-0.008,0.057-0.02,0.093 M61.586,66.971c-0.006,0.026-0.006,0.021-0.008,0.045c-0.025,0.429-0.025,0.86-0.008,1.292
	c0.002,0.023,0.004,0.044-0.004,0.069 M61.604,68.721c-0.01,0.036-0.01,0.021-0.008,0.054c0.029,0.415,0.068,0.831,0.113,1.247"/>
<path fill="#FDBB30" stroke="#B47800" stroke-width="0.0961" d="M54.494,63.362c0.926,0,2.002,0.016,3.523,0.022
	c0.723,0.012,1.533,0.079,2.459,0.228v5.398c-2.836-0.453-4.564,0.029-5.982,0.37V63.362z"/>
<path fill="#FFFFFF" d="M54.695,65.859c1.076-0.234,2.197-0.439,3.062-0.376c0.768-0.005,1.531,0.054,2.289,0.166v1.22
	c-0.801-0.123-1.604-0.158-2.404-0.171c-0.773-0.031-1.854,0.16-2.902,0.378"/>
<path fill="#E33D3A" d="M54.648,64.203c1.09-0.235,2.23-0.444,3.109-0.38c0.768-0.006,1.531,0.053,2.289,0.165v1.222
	c-0.801-0.125-1.604-0.16-2.404-0.173c-0.789-0.031-1.895,0.167-2.967,0.394"/>
<path fill="none" stroke="#B47800" stroke-width="0.0961" d="M54.73,64.179c0.893-0.204,1.936-0.376,3.287-0.354
	c0.607,0.01,1.277,0.059,2.025,0.161"/>
<path fill="#009A49" d="M58.613,67.828c1.172-0.548-1.502-0.782,0.357-0.644c0.768-0.007,0.318,0.008,1.076,0.12v1.222
	c-0.801-0.123-1.604-0.123-2.404-0.137c-1.246,0.157-1.555,0.144-2.623,0.487C55.338,68.318,57.074,67.95,58.613,67.828z"/>
<path fill="none" stroke="#B47800" stroke-width="0.0961" d="M60.039,63.924v1.271 M60.039,65.639v1.217 M60.039,67.298v1.188"/>
<path fill="none" stroke="#B47800" stroke-width="0.0961" d="M60.102,67.293h-0.062c-2.322-0.319-3.902-0.116-5.174,0.161"/>
<path fill="none" stroke="#B47800" stroke-width="0.0961" d="M60.102,66.854h-0.062c-0.746-0.103-1.414-0.152-2.021-0.161
	c-1.273-0.021-2.273,0.131-3.131,0.32"/>
<path fill="none" stroke="#B47800" stroke-width="0.0961" d="M60.102,65.639h-0.061c-2.359-0.324-3.949-0.111-5.23,0.175"/>
<path fill="none" stroke="#B47800" stroke-width="0.0961" d="M60.102,65.2h-0.068c-0.744-0.103-1.41-0.151-2.016-0.16
	c-1.322-0.021-2.346,0.143-3.227,0.34"/>
<path fill="none" stroke="#B47800" stroke-width="0.0961" d="M60.102,68.507h-0.062c-0.746-0.101-1.387-0.128-2.025-0.104
	c-1.221,0.052-2.268,0.165-3.074,0.498c0.996-0.953,2.574-1.021,4.1-1.049"/>
<path fill="#FDBB30" stroke="#B47800" stroke-width="0.0961" d="M43.708,62.217c-0.723,0.011-1.535,0.078-2.459,0.226v5.4
	c4.935-0.788,6.651,0.717,8.873,0.717c2.215-0.003,3.936-1.504,8.863-0.717v-5.4c-4.928-0.786-6.646,0.715-8.863,0.718
	c-0.004,0-0.006,0-0.008,0C48.312,63.157,46.839,62.165,43.708,62.217z"/>
<path fill="#009A49" d="M41.678,66.136v1.22c0.802-0.123,1.604-0.158,2.405-0.171c1.689-0.068,4.845,0.927,5.965,0.944
	c1.17,0.054,4.316-0.996,5.799-0.93c0.928-0.022,1.834,0.016,2.703,0.142v-1.208c-0.838-0.109-1.695-0.154-2.562-0.16
	c-2.162,0.03-4.561,0.906-5.719,0.943c-1.227,0.04-4.443-1.083-6.303-0.946C43.2,65.963,42.438,66.023,41.678,66.136L41.678,66.136z
	"/>
<path fill="#FFFFFF" d="M41.678,64.48v1.22c0.802-0.123,1.604-0.159,2.405-0.171c1.689-0.068,4.845,0.927,5.965,0.944
	c1.17,0.055,4.316-0.997,5.799-0.931c0.928-0.023,1.834,0.018,2.703,0.141v-1.208c-0.838-0.107-1.695-0.153-2.562-0.16
	c-2.162,0.03-4.561,0.907-5.719,0.943c-1.227,0.042-4.443-1.083-6.303-0.945C43.2,64.309,42.438,64.368,41.678,64.48z"/>
<path fill="#E33D3A" d="M41.678,62.819v1.222c0.802-0.125,1.604-0.161,2.405-0.173c1.689-0.068,4.845,0.927,5.965,0.944
	c1.17,0.055,4.316-0.996,5.799-0.93c0.928-0.024,1.834,0.017,2.703,0.142v-1.208c-0.838-0.108-1.695-0.154-2.562-0.16
	c-2.162,0.03-4.561,0.906-5.719,0.943c-1.227,0.04-4.443-1.085-6.303-0.946C43.2,62.648,42.438,62.708,41.678,62.819L41.678,62.819z
	"/>
<path fill="none" stroke="#B47800" stroke-width="0.0961" d="M58.551,62.816c-4.598-0.634-6.279,0.779-8.43,0.782
	c-0.004,0-0.006,0-0.008,0c-1.801-0.003-3.274-0.994-6.405-0.945c-0.607,0.01-1.276,0.059-2.024,0.162"/>
<path fill="none" stroke="#B47800" stroke-width="0.0961" d="M41.624,67.338h0.062c0.746-0.102,1.416-0.152,2.022-0.16
	c3.13-0.051,4.603,0.942,6.406,0.944c0.002,0,0.004,0,0.006,0c2.148-0.002,3.832-1.414,8.422-0.784h0.066"/>
<path fill="none" stroke="#B47800" stroke-width="0.0961" d="M41.687,62.755v1.271 M41.687,64.469v1.218 M41.687,66.129v1.188"/>
<path fill="none" stroke="#B47800" stroke-width="0.0961" d="M58.545,62.755v1.274 M58.545,64.474v1.21 M58.545,66.126v1.191"/>
<path fill="none" stroke="#B47800" stroke-width="0.0961" d="M41.624,66.123h0.062c4.601-0.633,6.281,0.785,8.433,0.785
	c2.148-0.004,3.832-1.418,8.426-0.785h0.062"/>
<path fill="none" stroke="#B47800" stroke-width="0.0961" d="M41.624,65.686h0.063c0.745-0.104,1.415-0.152,2.021-0.162
	c3.131-0.049,4.604,0.943,6.405,0.946c0.002,0,0.004,0,0.008,0c2.148-0.004,3.832-1.417,8.428-0.783h0.059"/>
<path fill="none" stroke="#B47800" stroke-width="0.0961" d="M41.624,64.471h0.06c4.602-0.634,6.282,0.783,8.436,0.783
	c2.15-0.004,3.832-1.416,8.43-0.783h0.059"/>
<path fill="none" stroke="#B47800" stroke-width="0.0961" d="M41.624,64.031h0.069c0.744-0.103,1.411-0.152,2.016-0.16
	c3.131-0.051,4.604,0.941,6.405,0.944c0.002,0,0.004,0,0.008,0c2.148-0.003,3.83-1.414,8.422-0.784h0.066"/>
<path fill="#FDBB30" stroke="#B47800" stroke-width="0.1787" d="M50.117,30.8l-2.033,6.256h-6.579l5.322,3.867l-2.033,6.257
	l5.322-3.867l5.322,3.867l-2.033-6.257l5.322-3.867h-6.58L50.117,30.8L50.117,30.8z"/>
<path fill="#E33D3A" stroke="#B47800" stroke-width="0.1787" d="M50.117,32.444l-1.664,5.119h-5.382l4.354,3.164l-1.663,5.119
	l4.355-3.165l4.354,3.165l-1.664-5.119l4.355-3.164h-5.383L50.117,32.444L50.117,32.444z"/>
</svg>
