<?xml version="1.0" encoding="utf-8"?>
<!-- Generator: Adobe Illustrator 16.0.0, SVG Export Plug-In . SVG Version: 6.00 Build 0)  -->
<!DOCTYPE svg PUBLIC "-//W3C//DTD SVG 1.1//EN" "http://www.w3.org/Graphics/SVG/1.1/DTD/svg11.dtd">
<svg version="1.1" id="Layer_1" xmlns="http://www.w3.org/2000/svg" xmlns:xlink="http://www.w3.org/1999/xlink" x="0px" y="0px"
	 width="100px" height="100px" viewBox="0 0 100 100" enable-background="new 0 0 100 100" xml:space="preserve">
<rect x="5" y="20" fill="#E33D3A" width="90" height="60"/>
<polygon fill="none" stroke="#FDBB30" stroke-width="0.5" stroke-miterlimit="10" points="51.717,35.675 55.516,36.312 
	52.699,38.938 53.266,42.746 49.897,40.88 46.452,42.597 47.185,38.817 44.489,36.069 48.311,35.599 50.09,32.185 "/>
<path fill="#040404" d="M46.442,44.094c0.101,0.225,0.109,0.452,0.018,0.688c-0.068,0.177-0.036,0.229,0.144,0.227
	c0.514-0.005,0.98,0.157,1.423,0.401c0.023,0.012,0.046,0.023,0.067,0.038c0.104,0.076,0.101,0.125-0.015,0.181
	c-0.023,0.011-0.051,0.011-0.074,0.021c-0.038,0.019-0.084,0.035-0.09,0.083c-0.007,0.076,0.065,0.074,0.108,0.084
	c0.312,0.069,0.608,0.176,0.89,0.334c0.188,0.106,0.31,0.27,0.438,0.43c0.082,0.103,0.05,0.159-0.093,0.186
	c-0.056,0.01-0.123-0.019-0.177,0.066c0.137,0.183,0.326,0.331,0.477,0.51c0.164,0.194,0.3,0.398,0.387,0.635
	c0.016,0.041,0.032,0.081,0.056,0.117c0.064,0.104,0.117,0.104,0.191,0c0.178-0.243,0.367-0.477,0.559-0.708
	c0.138-0.163,0.315-0.266,0.466-0.406c0.049-0.047,0.123-0.087,0.096-0.168c-0.021-0.061-0.092-0.067-0.146-0.091
	c-0.138-0.057-0.287-0.027-0.45-0.067c0.153-0.268,0.37-0.442,0.608-0.594c0.157-0.102,0.327-0.186,0.512-0.238
	C51.92,45.8,52,45.768,52.08,45.74c0.059-0.019,0.123-0.026,0.136-0.1c0.015-0.095-0.067-0.11-0.126-0.138
	c-0.068-0.035-0.143-0.06-0.207-0.085c-0.023-0.078,0.025-0.106,0.068-0.131c0.666-0.385,1.375-0.621,2.152-0.625
	c0.121-0.001,0.264,0.115,0.36-0.022c0.075-0.104,0-0.235,0.019-0.354c0.004-0.034-0.002-0.069,0-0.104
	c0.018-0.267,0.08-0.3,0.34-0.213c0.316,0.106,0.645,0.171,0.984,0.138c0.145-0.014,0.291,0.011,0.422,0.086
	c0.09,0.052,0.184,0.096,0.268,0.157c0.115,0.085,0.227,0.089,0.359,0.048c0.414-0.123,0.781-0.012,1.104,0.258
	c0.082,0.068,0.146,0.146,0.188,0.246c0.043,0.113,0,0.184-0.113,0.153c-0.168-0.044-0.326-0.021-0.483,0.012
	c-0.194,0.04-0.345,0.155-0.474,0.299c-0.027,0.032-0.059,0.067-0.026,0.114c0.034,0.054,0.077,0.051,0.134,0.031
	c0.129-0.047,0.258-0.098,0.395-0.129c0.301-0.069,0.602-0.023,0.885,0.075c0.236,0.082,0.465,0.185,0.689,0.288
	c0.396,0.179,0.803,0.187,1.186-0.051c0.125-0.078,0.236-0.178,0.27-0.333c0.012-0.047,0.026-0.086,0.08-0.08
	c0.051,0.007,0.057,0.058,0.064,0.099c0.076,0.331-0.104,0.684-0.426,0.867c-0.312,0.176-0.631,0.151-0.949,0.045
	c-0.205-0.067-0.4-0.149-0.586-0.266c-0.256-0.163-0.545-0.251-0.84-0.316c-0.043-0.009-0.086-0.012-0.131-0.006
	c-0.104,0.011-0.287-0.009-0.291,0.084c-0.006,0.128,0.18,0.066,0.271,0.105c0.055,0.022,0.118,0.014,0.18,0.02
	c0.052,0.004,0.11-0.008,0.133,0.054c0.021,0.062-0.03,0.091-0.073,0.121c-0.283,0.194-0.588,0.312-0.938,0.323
	c-0.271,0.008-0.528-0.054-0.778-0.146c-0.136-0.048-0.246-0.045-0.365,0.03c-0.563,0.356-1.201,0.517-1.854,0.579
	c-0.347,0.034-0.557,0.229-0.729,0.473c-0.34,0.485-0.562,1.032-0.641,1.617c-0.062,0.491-0.017,1,0.215,1.438
	c0.232,0.44,0.562,0.83,1.062,1.005c0.372,0.13,0.67-0.055,0.742-0.442c0.085-0.438-0.041-0.851-0.133-1.269
	c-0.012-0.042-0.025-0.083-0.041-0.124c-0.174-0.539-0.074-0.857,0.384-1.188c0.214-0.153,0.45-0.236,0.716-0.273
	c0.344-0.049,0.68-0.062,1.021,0.001c0.506,0.093,0.959,0.279,1.287,0.691c0.148,0.188,0.31,0.214,0.537,0.158
	c0.686-0.165,1.375-0.303,2.049-0.508c0.469-0.143,0.922-0.328,1.381-0.505c0.509-0.198,0.916-0.519,1.229-0.961
	c0.125-0.177,0.188-0.379,0.23-0.594c0.084-0.411,0.041-0.799-0.131-1.178c-0.082-0.183-0.188-0.346-0.348-0.474
	c-0.17-0.135-0.17-0.19,0.02-0.295c0.334-0.185,0.695-0.25,1.072-0.19c0.051,0.008,0.103,0.026,0.15,0.033
	c0.848,0.114,1.441,0.998,1.303,1.782c-0.035,0.199-0.047,0.402-0.109,0.598c-0.125,0.396-0.357,0.712-0.645,1.011
	c-0.451,0.473-0.988,0.789-1.59,1.025c-0.682,0.267-1.383,0.464-2.082,0.667c-0.857,0.249-1.732,0.431-2.598,0.656
	c-0.188,0.049-0.217,0.081-0.211,0.259c0.007,0.224,0.082,0.349,0.25,0.366c0.256,0.023,0.516,0.055,0.771,0.052
	c0.75-0.007,1.506,0.077,2.248-0.011c0.6-0.069,1.219-0.121,1.771-0.41c0.367-0.193,0.486-0.437,0.412-0.842
	c-0.032-0.171,0.01-0.234,0.174-0.234c0.605,0,1.084,0.255,1.404,0.769c0.201,0.323,0.164,0.644-0.035,0.972
	c-0.262,0.436-0.67,0.627-1.131,0.739c-0.375,0.092-0.758,0.143-1.146,0.125c-0.4-0.019-0.811,0.006-1.21-0.023
	c-0.521-0.04-1.044-0.066-1.562-0.137c-0.512-0.07-1.024-0.106-1.539-0.15c-0.215-0.02-0.25,0.025-0.25,0.253
	c0,0.269,0.021,0.313,0.279,0.386c0.521,0.146,1.047,0.283,1.573,0.399c0.651,0.144,1.302,0.312,1.97,0.377
	c0.496,0.051,0.996,0.11,1.489,0.015c0.407-0.08,0.728-0.307,0.858-0.728c0.064-0.209,0.119-0.239,0.281-0.095
	c0.271,0.24,0.434,0.529,0.41,0.92c-0.021,0.375-0.17,0.658-0.422,0.912c-0.299,0.301-0.668,0.459-1.082,0.479
	c-0.385,0.018-0.766-0.007-1.143-0.119c-0.784-0.23-1.549-0.517-2.322-0.777c-0.537-0.183-1.072-0.375-1.623-0.515
	c-0.041-0.01-0.084-0.021-0.125-0.028c-0.104-0.017-0.164,0.027-0.182,0.133C58.341,53.3,58.384,53.4,58.555,53.5
	c0.572,0.334,1.156,0.646,1.754,0.934c0.561,0.271,1.125,0.521,1.697,0.754c0.447,0.183,0.912,0.321,1.393,0.361
	c0.344,0.028,0.688-0.029,0.994-0.208c0.125-0.069,0.201-0.184,0.271-0.304c0.035-0.062,0.064-0.122,0.111-0.174
	c0.061-0.071,0.133-0.068,0.199-0.002c0.02,0.019,0.033,0.039,0.047,0.062c0.271,0.416,0.237,1.306-0.068,1.691
	c-0.121,0.146-0.297,0.229-0.453,0.339c-0.4,0.275-0.834,0.18-1.266,0.104c-0.354-0.061-0.66-0.231-0.971-0.4
	c-0.636-0.35-1.271-0.693-1.891-1.062c-0.42-0.25-0.854-0.474-1.234-0.785c-0.191-0.156-0.408-0.287-0.619-0.42
	c-0.146-0.093-0.223-0.057-0.256,0.107c-0.025,0.122-0.025,0.238,0.071,0.336c0.085,0.085,0.149,0.189,0.25,0.26
	c0.366,0.262,0.683,0.582,1.021,0.868c0.488,0.41,1.006,0.776,1.524,1.146c0.294,0.209,0.587,0.427,0.89,0.621
	c0.465,0.31,0.957,0.543,1.535,0.535c0.278-0.004,0.52-0.092,0.707-0.312c0.077-0.089,0.111-0.191,0.146-0.298
	c0.031-0.096,0.084-0.12,0.172-0.053c0.457,0.358,0.832,1.192,0.337,1.838c-0.181,0.229-0.427,0.316-0.696,0.334
	c-0.492,0.023-0.955-0.105-1.395-0.318c-0.238-0.116-0.477-0.238-0.707-0.368c-0.307-0.173-0.59-0.387-0.863-0.608
	c-0.643-0.519-1.311-1.004-1.932-1.549c-0.367-0.324-0.762-0.617-1.146-0.923c-0.039-0.032-0.082-0.063-0.125-0.09
	c-0.062-0.038-0.113-0.019-0.156,0.038c-0.137,0.176-0.135,0.404,0.016,0.566c0.369,0.41,0.752,0.804,1.137,1.195
	c0.456,0.473,0.945,0.904,1.41,1.367c0.375,0.376,0.744,0.77,1.188,1.066c0.377,0.261,0.748,0.523,1.144,0.754
	c0.515,0.3,1.164,0.195,1.551-0.244c0.152-0.18,0.226-0.18,0.326,0.025c0.144,0.277,0.226,0.576,0.183,0.896
	c-0.021,0.138,0.004,0.271-0.052,0.408c-0.194,0.484-0.397,0.613-0.985,0.687c-0.41,0.05-0.761-0.138-1.088-0.347
	c-0.787-0.5-1.517-1.075-2.179-1.735c-0.396-0.395-0.83-0.752-1.211-1.161c-0.313-0.346-0.646-0.668-0.969-1.007
	c-0.267-0.276-0.521-0.569-0.824-0.812c-0.079-0.062-0.146-0.166-0.265-0.066c-0.129,0.104-0.188,0.303-0.11,0.411
	c0.104,0.146,0.222,0.288,0.334,0.427c0.438,0.53,0.919,1.031,1.312,1.596c0.478,0.688,1.097,1.259,1.573,1.939
	c0.291,0.417,0.632,0.794,0.979,1.165c0.396,0.422,0.81,0.824,1.389,0.996c0.188,0.058,0.377,0.067,0.562,0.022
	c0.293-0.067,0.506-0.242,0.574-0.56c0.053-0.228,0.105-0.248,0.316-0.149c0.261,0.119,0.459,0.305,0.602,0.549
	c0.061,0.104,0.125,0.205,0.182,0.312c0.273,0.539,0.197,1.456-0.66,1.733c-0.084,0.026-0.166,0.05-0.254,0.047
	c-0.541-0.021-1.064-0.103-1.555-0.375c-0.508-0.287-0.957-0.647-1.363-1.058c-0.336-0.338-0.654-0.701-0.951-1.082
	c-0.516-0.655-1.055-1.295-1.57-1.948c-0.305-0.386-0.582-0.789-0.878-1.183c-0.362-0.479-0.729-0.957-1.097-1.437
	c-0.137-0.175-0.184-0.165-0.338-0.007c-0.146,0.146-0.17,0.289-0.084,0.482c0.435,0.975,0.822,1.967,1.365,2.889
	c0.039,0.063,0.063,0.141,0.1,0.211c0.191,0.428,0.482,0.794,0.795,1.137c0.346,0.384,0.729,0.396,1.146,0.1
	c0.121-0.089,0.16-0.082,0.188,0.062c0.07,0.354,0.123,0.712,0.025,1.071c-0.08,0.287-0.264,0.507-0.486,0.686
	c-0.166,0.133-0.375,0.121-0.568,0.061c-0.436-0.14-0.775-0.395-1.025-0.778c-0.338-0.521-0.596-1.085-0.856-1.646
	c-0.231-0.5-0.405-1.021-0.608-1.53c-0.188-0.474-0.406-0.933-0.613-1.396c-0.033-0.066-0.064-0.145-0.098-0.212
	c-0.086-0.199-0.125-0.212-0.301-0.095c-0.025,0.019-0.057,0.037-0.085,0.058c-0.296,0.188-0.329,0.14-0.211,0.535
	c0.175,0.583,0.333,1.173,0.604,1.728c0.097,0.194,0.231,0.359,0.396,0.504c0.132,0.11,0.284,0.181,0.47,0.188
	c0.241,0.012,0.279,0.093,0.188,0.32c-0.17,0.408-0.5,0.562-0.938,0.457c-0.256-0.062-0.439-0.196-0.588-0.42
	c-0.309-0.474-0.467-0.994-0.605-1.527c-0.084-0.316-0.172-0.631-0.264-0.944c-0.052-0.173-0.084-0.185-0.261-0.11
	c-0.056,0.022-0.108,0.045-0.166,0.072c-0.142,0.064-0.207,0.17-0.19,0.329c0.024,0.3,0.096,0.593,0.152,0.888
	c0.158,0.815,0.482,1.564,0.995,2.215c0.351,0.443,0.8,0.777,1.341,0.979c0.348,0.13,0.688,0.255,1.066,0.267
	c0.229,0.009,0.354,0.172,0.334,0.396c-0.021,0.251-0.076,0.48-0.293,0.657c-0.182,0.146-0.176,0.2,0.004,0.332
	c0.246,0.177,0.496,0.345,0.748,0.51c0.566,0.374,1.188,0.665,1.736,1.062c0.104,0.076,0.228,0.125,0.352,0.164
	c0.264,0.088,0.525-0.022,0.643-0.275c0.023-0.057,0.047-0.112,0.059-0.171c0.033-0.19,0.141-0.334,0.289-0.444
	c0.146-0.105,0.244-0.229,0.24-0.425c-0.004-0.158,0.078-0.296,0.193-0.41c0.215-0.209,0.527-0.205,0.691,0.043
	c0.133,0.205,0.293,0.354,0.52,0.438c0.082,0.033,0.145,0.099,0.199,0.164c0.105,0.127,0.104,0.181-0.01,0.361
	c-0.078,0.014-0.119-0.056-0.168-0.095c-0.107-0.089-0.23-0.103-0.365-0.101c-0.09,0.002-0.143,0.035-0.146,0.136
	c-0.023,0.317-0.229,0.474-0.518,0.52c-0.211,0.032-0.307,0.179-0.391,0.339c-0.066,0.129,0.004,0.219,0.15,0.207
	c0.062-0.007,0.116-0.027,0.176-0.048c0.252-0.082,0.508-0.165,0.762-0.245c0.125-0.044,0.229-0.119,0.311-0.223
	c0.045-0.055,0.088-0.107,0.143-0.148c0.256-0.19,0.441-0.188,0.604,0.072c0.062,0.102,0.131,0.143,0.252,0.133
	c0.188-0.019,0.317,0.094,0.364,0.264c0.082,0.307,0.095,0.611-0.086,0.896c-0.031,0.054-0.062,0.112-0.14,0.08
	c-0.067-0.026-0.026-0.084-0.026-0.133c0-0.122-0.035-0.237-0.097-0.345c-0.061-0.104-0.127-0.104-0.205-0.021
	c-0.038,0.044-0.062,0.103-0.104,0.147c-0.144,0.17-0.291,0.218-0.5,0.135c-0.109-0.044-0.191-0.036-0.287,0.025
	c-0.078,0.054-0.173,0.08-0.258,0.121c-0.117,0.06-0.13,0.121-0.02,0.172c0.205,0.095,0.265,0.252,0.25,0.459
	c-0.014,0.183-0.012,0.36,0.068,0.533c0.032,0.069,0.034,0.158,0.008,0.229c-0.104,0.26-0.271,0.479-0.5,0.636
	c-0.037,0.024-0.094,0.06-0.145,0.021c-0.057-0.043-0.021-0.094-0.005-0.144c0.035-0.133,0.069-0.266,0.037-0.405
	c-0.039-0.174-0.117-0.23-0.271-0.148c-0.168,0.088-0.312,0.072-0.457-0.029c-0.146-0.104-0.244-0.24-0.232-0.436
	c0-0.018,0-0.034,0-0.053c0.006-0.17-0.057-0.31-0.207-0.389c-0.145-0.072-0.373-0.016-0.498,0.118
	c-0.07,0.075-0.127,0.163-0.189,0.244c-0.24,0.307-0.518,0.538-0.945,0.442c-0.072-0.02-0.137,0.002-0.187,0.062
	c-0.075,0.088-0.179,0.134-0.272,0.19c-0.152,0.097-0.299,0.104-0.451-0.019c-0.143-0.108-0.186-0.099-0.294,0.047
	c-0.064,0.091-0.12,0.188-0.14,0.304c-0.01,0.06-0.021,0.118-0.045,0.174c-0.047,0.096-0.121,0.106-0.18,0.024
	c-0.193-0.274-0.348-0.661-0.032-0.985c0.136-0.14,0.228-0.301,0.265-0.491c0.01-0.042,0.025-0.083,0.047-0.12
	c0.188-0.329,0.396-0.458,0.71-0.188c0.118,0.104,0.224,0.104,0.354,0.045c0.142-0.062,0.274-0.136,0.431-0.17
	c0.117-0.026,0.139-0.113,0.067-0.224c-0.062-0.104-0.169-0.171-0.271-0.229c-0.484-0.277-0.977-0.549-1.451-0.836
	c-0.43-0.259-0.898-0.438-1.312-0.726c-0.041-0.028-0.102-0.074-0.164-0.024c-0.062,0.049-0.037,0.104-0.028,0.164
	c0.017,0.146-0.017,0.286-0.089,0.418c-0.115,0.211-0.236,0.248-0.438,0.106c-0.195-0.138-0.395-0.281-0.568-0.44
	c-0.703-0.634-1.268-1.377-1.729-2.205c-0.266-0.477-0.5-0.961-0.677-1.477c-0.021-0.057-0.028-0.133-0.104-0.123
	c-0.087,0.014-0.093,0.104-0.087,0.162c0.022,0.225-0.019,0.443-0.002,0.666c0.047,0.699,0.207,1.372,0.438,2.034
	c0.154,0.438,0.425,0.799,0.69,1.166c0.373,0.515,0.865,0.903,1.369,1.278c0.205,0.153,0.442,0.264,0.668,0.393
	c0.154,0.09,0.166,0.111,0.113,0.289c-0.029,0.099-0.062,0.197-0.113,0.287c-0.196,0.337-0.485,0.438-0.858,0.301
	c-0.422-0.153-0.772-0.409-1.062-0.754c-0.254-0.305-0.506-0.606-0.727-0.938c-0.027-0.041-0.051-0.092-0.129-0.087
	c-0.059,0.115-0.062,0.257-0.014,0.363c0.178,0.387,0.262,0.801,0.438,1.188c0.258,0.562,0.68,0.939,1.229,1.196
	c0.33,0.154,0.352,0.222,0.146,0.53c-0.119,0.181-0.269,0.268-0.492,0.271c-0.346,0.01-0.631-0.099-0.904-0.308
	c-0.457-0.351-0.783-0.793-1.02-1.312c-0.092-0.2-0.188-0.398-0.277-0.596c-0.064,0.018-0.084,0.053-0.088,0.1
	c-0.062,0.656,0.035,1.285,0.357,1.865c0.221,0.396,0.543,0.686,0.973,0.853c0.387,0.151,0.312,0.137,0.156,0.456
	c-0.146,0.308-0.562,0.584-1,0.297c-0.242-0.159-0.457-0.35-0.611-0.586c-0.281-0.432-0.571-0.86-0.703-1.37
	c-0.041-0.166-0.07-0.334-0.111-0.5c-0.014-0.044-0.02-0.108-0.092-0.104c-0.051,0.004-0.07,0.047-0.082,0.088
	c-0.104,0.418-0.208,0.842-0.146,1.271c0.089,0.616,0.301,1.196,0.608,1.739c0.091,0.157,0.212,0.293,0.313,0.438
	c0.111,0.16,0.111,0.168-0.021,0.308c-0.188,0.19-0.369,0.387-0.56,0.573c-0.354,0.352-0.597,0.773-0.812,1.219
	c-0.016,0.027-0.032,0.062-0.047,0.084c-0.098-0.006-0.115-0.08-0.143-0.143c-0.315-0.646-0.706-1.238-1.238-1.73
	c-0.181-0.169-0.185-0.186-0.035-0.383c0.364-0.485,0.581-1.036,0.701-1.621c0.077-0.379,0.046-0.771-0.001-1.159
	c-0.01-0.085-0.022-0.17-0.035-0.254c-0.006-0.037-0.024-0.063-0.062-0.068c-0.034-0.006-0.067,0.007-0.087,0.037
	c-0.01,0.019-0.02,0.029-0.027,0.047c-0.171,0.347-0.352,0.688-0.509,1.043c-0.126,0.282-0.278,0.552-0.46,0.806
	c-0.187,0.26-0.449,0.398-0.744,0.479c-0.445,0.122-0.842-0.207-0.974-0.541c-0.032-0.079-0.007-0.133,0.066-0.166
	c0.023-0.012,0.048-0.021,0.072-0.027c0.567-0.189,0.923-0.611,1.203-1.109c0.16-0.282,0.216-0.654,0.15-0.956
	c-0.114,0.047-0.159,0.147-0.218,0.237c-0.205,0.312-0.441,0.594-0.729,0.832c-0.243,0.203-0.526,0.326-0.829,0.396
	c-0.417,0.1-0.876-0.123-1.044-0.479c-0.03-0.062-0.052-0.127-0.056-0.196c-0.008-0.187,0.027-0.224,0.218-0.205
	c0.161,0.017,0.313-0.022,0.45-0.093c0.511-0.256,0.896-0.633,1.122-1.163c0.095-0.224,0.157-0.455,0.229-0.687
	c0.012-0.041,0.016-0.087,0.017-0.128c0.002-0.05,0.017-0.106-0.038-0.14c-0.059-0.03-0.101,0.02-0.13,0.058
	c-0.139,0.188-0.316,0.343-0.498,0.485c-0.343,0.27-0.662,0.58-1.098,0.705c-0.216,0.062-0.431,0.104-0.654,0.017
	c-0.344-0.135-0.436-0.438-0.443-0.723c-0.004-0.146,0.105-0.199,0.235-0.228c0.254-0.051,0.499-0.121,0.72-0.27
	c0.487-0.32,0.902-0.705,1.235-1.189c0.404-0.596,0.582-1.268,0.693-1.951c0.089-0.549,0.146-1.106,0.131-1.668
	c-0.003-0.104,0.005-0.207,0.029-0.308c0.011-0.046-0.015-0.091-0.057-0.104c-0.051-0.021-0.076,0.021-0.094,0.062
	c-0.083,0.198-0.168,0.396-0.252,0.595c-0.271,0.645-0.598,1.258-0.958,1.854c-0.263,0.438-0.56,0.849-0.837,1.271
	c-0.123,0.188-0.297,0.312-0.481,0.418c-0.139,0.082-0.205,0.06-0.3-0.082c-0.09-0.131-0.122-0.281-0.15-0.437
	c-0.009-0.052-0.006-0.104-0.019-0.153c-0.047-0.173-0.125-0.209-0.279-0.115c-0.304,0.182-0.646,0.283-0.945,0.471
	c-0.539,0.338-1.114,0.615-1.64,0.977c-0.021,0.016-0.043,0.026-0.062,0.045c-0.23,0.199-0.202,0.438,0.088,0.523
	c0.25,0.075,0.459,0.176,0.613,0.395c0.067,0.096,0.178,0.092,0.281,0.034c0.122-0.067,0.248-0.125,0.39-0.12
	c0.303,0.01,0.417,0.182,0.306,0.459c-0.016,0.041-0.033,0.082-0.061,0.11c-0.096,0.101-0.103,0.222-0.068,0.339
	c0.072,0.25-0.017,0.457-0.164,0.646c-0.115,0.148-0.23,0.304-0.411,0.384c-0.042,0.021-0.081,0.03-0.118-0.007
	c-0.035-0.036-0.03-0.074-0.005-0.116c0.079-0.128,0.104-0.271,0.104-0.42c0-0.153-0.062-0.193-0.209-0.15
	c-0.049,0.015-0.097,0.035-0.147,0.048c-0.215,0.045-0.302-0.021-0.314-0.244c-0.015-0.242-0.028-0.254-0.275-0.266
	c-0.223-0.007-0.442-0.043-0.656-0.113c-0.197-0.066-0.354-0.185-0.472-0.348c-0.091-0.127-0.166-0.135-0.298-0.054
	c-0.122,0.075-0.267,0.133-0.418,0.093c-0.133-0.037-0.22,0.03-0.286,0.124c-0.158,0.228-0.341,0.403-0.623,0.466
	c-0.109,0.024-0.125,0.128-0.105,0.232c0.034,0.171,0.143,0.283,0.276,0.388c0.105,0.081,0.093,0.125-0.024,0.177
	c-0.545,0.228-1.145-0.353-1.012-0.82c0.034-0.118-0.025-0.197-0.081-0.284c-0.145-0.229-0.139-0.38,0.036-0.581
	c0.084-0.098,0.184-0.182,0.283-0.264c0.09-0.072,0.109-0.147,0.042-0.246c-0.034-0.049-0.059-0.104-0.091-0.154
	c-0.057-0.091-0.131-0.135-0.239-0.084c-0.237,0.107-0.41,0.018-0.563-0.167c-0.184-0.222-0.371-0.229-0.587-0.039
	c-0.052,0.045-0.086,0.108-0.14,0.149c-0.051,0.041-0.115,0.043-0.144-0.035c-0.065-0.188,0.073-0.651,0.236-0.785
	c0.053-0.043,0.114-0.104,0.172-0.105c0.26-0.009,0.487-0.132,0.731-0.186c0.295-0.066,0.563,0.07,0.753,0.305
	c0.161,0.197,0.344,0.234,0.573,0.172c0.156-0.041,0.2-0.084,0.188-0.221c-0.011-0.145-0.11-0.264-0.232-0.268
	c-0.067-0.002-0.135,0.021-0.203,0.033c-0.188,0.026-0.314-0.055-0.363-0.234c-0.037-0.139-0.022-0.301-0.183-0.376
	c-0.167-0.082-0.345-0.101-0.528-0.085c-0.078,0.007-0.188,0.098-0.226-0.019c-0.03-0.094,0.073-0.161,0.153-0.215
	c0.216-0.14,0.439-0.228,0.706-0.137c0.164,0.053,0.321,0.042,0.486-0.062c0.253-0.156,0.586-0.096,0.785,0.1
	c0.109,0.104,0.147,0.232,0.146,0.373c0,0.104,0.038,0.178,0.103,0.25c0.111,0.125,0.172,0.271,0.219,0.434
	c0.042,0.146,0.106,0.293,0.19,0.42c0.125,0.194,0.392,0.312,0.671,0.154c0.873-0.49,1.685-1.068,2.505-1.639
	c0.042-0.027,0.086-0.058,0.125-0.092c0.076-0.065,0.098-0.14,0.004-0.214c-0.048-0.036-0.09-0.082-0.141-0.11
	c-0.18-0.107-0.23-0.297-0.288-0.476c-0.054-0.166,0.071-0.264,0.187-0.332c0.162-0.097,0.334-0.186,0.513-0.241
	c0.502-0.16,0.948-0.406,1.317-0.783c0.285-0.291,0.506-0.633,0.707-0.982c0.183-0.316,0.354-0.646,0.492-0.988
	c0.209-0.521,0.362-1.059,0.473-1.604c0.021-0.104,0.024-0.206,0.031-0.309c0.021-0.332-0.002-0.306-0.285-0.479
	c-0.098-0.062-0.163-0.021-0.174,0.1c-0.068,0.729-0.319,1.402-0.597,2.065c-0.13,0.31-0.349,0.565-0.579,0.815
	c-0.233,0.252-0.689,0.127-0.815-0.139c-0.034-0.066-0.056-0.146-0.081-0.217c-0.039-0.115-0.004-0.212,0.103-0.262
	c0.569-0.267,0.723-0.805,0.878-1.332c0.115-0.396,0.194-0.803,0.287-1.203c0.017-0.075,0.023-0.153,0.033-0.229
	c0.015-0.104-0.024-0.188-0.111-0.244c-0.049-0.033-0.097-0.07-0.146-0.104c-0.275-0.198-0.299-0.188-0.406,0.146
	c-0.173,0.539-0.273,1.104-0.502,1.625c-0.231,0.521-0.332,1.084-0.557,1.604c-0.125,0.292-0.234,0.597-0.401,0.864
	c-0.28,0.438-0.589,0.871-1.008,1.199c-0.254,0.194-0.559,0.304-0.872,0.229c-0.277-0.064-0.531-0.225-0.687-0.475
	c-0.187-0.304-0.321-0.627-0.242-0.998c0.031-0.146,0.06-0.162,0.188-0.082c0.316,0.199,0.62,0.129,0.928-0.021
	c0.406-0.192,0.619-0.562,0.84-0.918c0.347-0.557,0.588-1.166,0.864-1.759c0.251-0.538,0.424-1.104,0.697-1.639
	c0.051-0.098,0.063-0.217,0.118-0.312c0.124-0.217,0.063-0.391-0.092-0.557c-0.091-0.099-0.148-0.107-0.223,0.003
	c-0.093,0.138-0.216,0.248-0.311,0.378c-0.242,0.333-0.476,0.672-0.698,1.021c-0.094,0.146-0.198,0.28-0.307,0.412
	c-0.277,0.334-0.465,0.725-0.726,1.064c-0.371,0.484-0.756,0.959-1.112,1.456c-0.329,0.458-0.711,0.864-1.1,1.264
	c-0.366,0.375-0.733,0.757-1.162,1.058c-0.401,0.283-0.846,0.502-1.343,0.562c-0.336,0.039-0.667-0.034-0.986-0.146
	c-0.149-0.051-0.269-0.153-0.362-0.28c-0.475-0.647-0.279-1.585,0.382-2.021c0.113-0.073,0.174-0.055,0.196,0.087
	c0.069,0.454,0.408,0.586,0.786,0.654c0.335,0.062,0.646-0.025,0.935-0.208c0.532-0.33,0.979-0.75,1.394-1.218
	c0.32-0.36,0.648-0.717,0.96-1.081c0.21-0.249,0.391-0.521,0.6-0.771c0.756-0.906,1.461-1.854,2.143-2.813
	c0.02-0.028,0.039-0.058,0.058-0.085c0.202-0.309,0.191-0.415-0.057-0.693c-0.075-0.084-0.138-0.078-0.217-0.004
	c-0.12,0.114-0.212,0.249-0.319,0.372c-0.601,0.687-1.189,1.384-1.808,2.052c-0.521,0.562-1.063,1.107-1.636,1.619
	c-0.302,0.27-0.592,0.551-0.912,0.801c-0.444,0.346-0.931,0.592-1.489,0.664c-0.271,0.035-0.551,0.021-0.811-0.086
	c-0.478-0.193-0.732-0.756-0.59-1.257c0.092-0.321,0.217-0.616,0.487-0.831c0.054-0.042,0.106-0.086,0.164-0.125
	c0.088-0.059,0.165-0.037,0.22,0.051c0.026,0.043,0.043,0.094,0.067,0.139c0.12,0.22,0.289,0.353,0.544,0.387
	c0.406,0.059,0.778-0.057,1.111-0.255c0.581-0.354,1.136-0.75,1.575-1.282c0.098-0.119,0.227-0.21,0.339-0.314
	c0.711-0.68,1.36-1.41,1.993-2.16c0.206-0.244,0.344-0.535,0.574-0.765c0.118-0.112,0.098-0.325-0.005-0.45
	c-0.038-0.047-0.086-0.062-0.138-0.031c-0.044,0.021-0.089,0.055-0.125,0.091c-0.245,0.241-0.486,0.487-0.73,0.731
	c-0.378,0.375-0.748,0.762-1.169,1.09c-0.36,0.276-0.676,0.607-1.03,0.896c-0.448,0.361-0.881,0.749-1.399,1.013
	c-0.246,0.125-0.491,0.276-0.754,0.327c-0.405,0.079-0.821,0.076-1.193-0.182c-0.313-0.22-0.386-0.552-0.476-0.886
	c-0.129-0.481,0.05-0.875,0.349-1.233c0.12-0.146,0.181-0.157,0.312-0.017c0.24,0.263,0.544,0.384,0.883,0.438
	c0.322,0.056,0.632,0.007,0.928-0.13c0.582-0.268,1.119-0.605,1.638-0.977c0.852-0.604,1.593-1.338,2.367-2.033
	c0.152-0.139,0.204-0.287,0.146-0.482c-0.04-0.132-0.101-0.158-0.197-0.066c-0.418,0.399-0.899,0.719-1.387,1.023
	c-0.248,0.157-0.457,0.364-0.706,0.521c-0.639,0.404-1.331,0.687-2.061,0.859c-0.401,0.096-0.826,0.101-1.23,0.014
	c-0.594-0.129-0.99-0.491-1.144-1.096c-0.03-0.121-0.014-0.242,0.007-0.358c0.054-0.302,0.226-0.538,0.438-0.744
	c0.113-0.111,0.207-0.089,0.252,0.062c0.166,0.531,0.606,0.64,1.069,0.69c0.274,0.03,0.546-0.022,0.809-0.125
	c0.225-0.087,0.458-0.149,0.684-0.231c0.66-0.233,1.259-0.594,1.879-0.912c0.361-0.186,0.684-0.431,1.04-0.623
	c0.294-0.156,0.358-0.358,0.242-0.666c-0.031-0.084-0.094-0.094-0.167-0.08c-0.137,0.024-0.256,0.101-0.38,0.156
	c-0.788,0.364-1.552,0.784-2.381,1.056c-0.637,0.206-1.281,0.415-1.953,0.432c-0.633,0.017-1.181-0.233-1.558-0.769
	c-0.216-0.305-0.251-0.647-0.091-1.004c0.093-0.207,0.218-0.391,0.362-0.562c0.111-0.132,0.196-0.123,0.262,0.044
	c0.144,0.362,0.437,0.518,0.788,0.594c0.399,0.086,0.797,0.073,1.205,0.031c0.848-0.087,1.682-0.247,2.513-0.426
	c0.386-0.082,0.765-0.194,1.146-0.301c0.173-0.049,0.258-0.326,0.152-0.465c-0.04-0.055-0.096-0.066-0.16-0.063
	c-0.679,0.022-1.356,0.063-2.034,0.103c-0.81,0.049-1.617,0.045-2.426,0.045c-0.652,0-1.206-0.24-1.634-0.748
	c-0.083-0.098-0.109-0.211-0.144-0.326c-0.225-0.771,0.262-1.375,0.822-1.604c0.168-0.068,0.18-0.053,0.199,0.141
	c0.022,0.211,0.11,0.392,0.256,0.551c0.281,0.306,0.641,0.458,1.034,0.541c0.708,0.148,1.423,0.242,2.147,0.267
	c0.428,0.015,0.856,0.058,1.286,0.069c0.23,0.005,0.462-0.025,0.693-0.043c0.064-0.006,0.11-0.047,0.135-0.107
	c0.017-0.039,0.028-0.08,0.041-0.122c0.097-0.32,0.065-0.38-0.263-0.428c-1.188-0.175-2.333-0.516-3.464-0.898
	c-0.688-0.233-1.371-0.508-1.973-0.94c-0.326-0.232-0.617-0.498-0.863-0.81c-0.148-0.189-0.251-0.405-0.302-0.649
	c-0.053-0.252-0.086-0.503-0.103-0.762c-0.04-0.554,0.499-1.281,1.154-1.354c0.327-0.037,0.609,0.073,0.896,0.183
	c0.094,0.036,0.122,0.123,0.077,0.215c-0.378,0.78-0.07,1.378,0.507,1.901c0.354,0.32,0.766,0.555,1.191,0.763
	c0.596,0.291,1.191,0.58,1.814,0.81c0.507,0.188,1.011,0.39,1.519,0.577c0.225,0.083,0.242,0.066,0.378-0.126
	c0.39-0.547,0.934-0.818,1.59-0.89c0.465-0.051,0.899,0.04,1.322,0.237c0.423,0.197,0.521,0.676,0.403,1.057
	c-0.043,0.14-0.117,0.268-0.19,0.395c-0.182,0.309-0.217,0.631-0.16,0.99c0.091,0.562,0.806,0.993,1.464,0.665
	c0.469-0.233,0.759-0.608,0.853-1.13c0.028-0.16,0.012-0.323,0.013-0.48c0-0.941-0.248-1.804-0.92-2.499
	c-0.166-0.172-0.373-0.302-0.588-0.416c-0.158-0.083-0.322-0.125-0.497-0.111c-0.662,0.055-1.299-0.085-1.929-0.26
	c-0.081-0.023-0.149-0.012-0.224,0.014c-0.154,0.053-0.311,0.1-0.465,0.151c-0.29,0.097-0.566,0.027-0.826-0.092
	c-0.19-0.086-0.284-0.272-0.344-0.465c-0.029-0.093,0.024-0.15,0.12-0.139c0.095,0.009,0.188,0.034,0.278-0.01
	c0.029-0.014,0.063-0.03,0.063-0.072c0-0.045-0.036-0.055-0.065-0.068c-0.158-0.075-0.326-0.058-0.483-0.021
	c-0.156,0.037-0.316,0.078-0.459,0.165c-0.332,0.199-0.708,0.268-1.082,0.318c-0.331,0.044-0.604-0.113-0.821-0.354
	c-0.159-0.176-0.16-0.395-0.104-0.612c0.04-0.153,0.119-0.169,0.223-0.053c0.07,0.077,0.138,0.155,0.197,0.24
	c0.143,0.202,0.338,0.286,0.579,0.271c0.258-0.016,0.517-0.038,0.76-0.129c0.294-0.111,0.605-0.125,0.912-0.155
	c0.207-0.021,0.403,0.075,0.601,0.128c0.058,0.016,0.114,0.039,0.172,0.051c0.056,0.013,0.103-0.009,0.132-0.059
	c0.034-0.056,0.006-0.104-0.036-0.134c-0.247-0.178-0.495-0.357-0.826-0.212c-0.039,0.017-0.073,0.044-0.115,0.008
	c-0.05-0.043-0.03-0.092-0.016-0.141c0.04-0.127,0.119-0.227,0.219-0.313c0.393-0.34,0.843-0.413,1.327-0.26
	c0.155,0.049,0.241,0.042,0.352-0.089c0.174-0.205,0.432-0.193,0.674-0.167c0.29,0.03,0.576,0.093,0.867,0.119
	c0.378,0.034,0.74-0.017,1.028-0.304c0.018-0.017,0.042-0.027,0.065-0.039C46.414,44.085,46.425,44.091,46.442,44.094z
	 M44.317,45.298c0.12-0.028,0.26-0.022,0.365-0.129c0.022-0.023,0.009-0.053-0.01-0.065c-0.122-0.088-0.258-0.073-0.392-0.042
	c-0.085,0.021-0.224,0.023-0.213,0.134C44.077,45.308,44.222,45.263,44.317,45.298z M56.184,45.053
	c-0.199-0.11-0.365-0.102-0.535-0.052c-0.029,0.01-0.062,0.033-0.062,0.072c-0.004,0.053,0.033,0.081,0.074,0.089
	C55.83,45.195,55.996,45.195,56.184,45.053z"/>
</svg>
