<?xml version="1.0" encoding="utf-8"?>
<!-- Generator: Adobe Illustrator 16.0.0, SVG Export Plug-In . SVG Version: 6.00 Build 0)  -->
<!DOCTYPE svg PUBLIC "-//W3C//DTD SVG 1.1//EN" "http://www.w3.org/Graphics/SVG/1.1/DTD/svg11.dtd">
<svg version="1.1" id="Layer_1" xmlns="http://www.w3.org/2000/svg" xmlns:xlink="http://www.w3.org/1999/xlink" x="0px" y="0px"
	 width="112.5px" height="91.5px" viewBox="0 0 112.5 91.5" enable-background="new 0 0 112.5 91.5" xml:space="preserve">
<rect x="8.487" y="11.333" fill="#EE3426" width="90" height="60"/>
<polygon fill="none" stroke="#FEDD13" stroke-width="0.5" stroke-miterlimit="10" points="55.203,27.008 59.001,27.645 
	56.185,30.271 56.752,34.079 53.384,32.213 49.938,33.93 50.671,30.15 47.975,27.402 51.797,26.932 53.576,23.518 "/>
<path fill="#040404" d="M49.928,35.427c0.101,0.225,0.109,0.452,0.018,0.688c-0.068,0.177-0.036,0.229,0.144,0.227
	c0.514-0.005,0.98,0.157,1.423,0.401c0.023,0.012,0.046,0.023,0.067,0.038c0.104,0.076,0.101,0.125-0.015,0.181
	c-0.023,0.011-0.051,0.011-0.074,0.021c-0.038,0.019-0.084,0.035-0.09,0.083c-0.007,0.076,0.065,0.074,0.108,0.084
	c0.312,0.069,0.608,0.176,0.89,0.334c0.188,0.106,0.31,0.27,0.438,0.43c0.082,0.103,0.05,0.159-0.093,0.186
	c-0.056,0.01-0.123-0.019-0.177,0.066c0.137,0.183,0.326,0.331,0.477,0.51c0.164,0.194,0.3,0.398,0.387,0.635
	c0.016,0.041,0.032,0.081,0.056,0.117c0.064,0.103,0.116,0.104,0.191,0c0.178-0.243,0.367-0.477,0.559-0.708
	c0.136-0.163,0.315-0.266,0.465-0.406c0.049-0.047,0.123-0.087,0.095-0.168c-0.02-0.061-0.092-0.067-0.146-0.091
	c-0.137-0.057-0.288-0.027-0.451-0.067c0.153-0.268,0.371-0.442,0.608-0.594c0.159-0.102,0.329-0.186,0.513-0.238
	c0.083-0.023,0.163-0.055,0.244-0.083c0.057-0.019,0.123-0.026,0.135-0.1c0.015-0.095-0.068-0.11-0.126-0.138
	c-0.069-0.035-0.142-0.06-0.207-0.085c-0.024-0.078,0.025-0.106,0.068-0.131c0.666-0.385,1.376-0.621,2.154-0.625
	c0.121-0.001,0.262,0.115,0.361-0.022c0.075-0.104,0-0.235,0.017-0.354c0.004-0.034-0.001-0.069,0.001-0.104
	c0.016-0.267,0.079-0.3,0.338-0.213c0.318,0.106,0.644,0.171,0.985,0.138c0.145-0.014,0.291,0.011,0.422,0.086
	c0.089,0.052,0.184,0.096,0.267,0.157c0.115,0.085,0.226,0.089,0.361,0.048c0.414-0.123,0.78-0.012,1.105,0.258
	c0.081,0.068,0.146,0.147,0.185,0.246c0.043,0.113,0,0.184-0.114,0.153c-0.167-0.044-0.325-0.021-0.484,0.012
	c-0.194,0.04-0.343,0.155-0.472,0.299c-0.029,0.032-0.058,0.067-0.028,0.114c0.035,0.054,0.079,0.051,0.134,0.031
	c0.128-0.047,0.258-0.098,0.391-0.129c0.302-0.069,0.6-0.023,0.886,0.075c0.235,0.082,0.463,0.185,0.691,0.288
	c0.396,0.179,0.8,0.187,1.183-0.051c0.125-0.078,0.236-0.178,0.268-0.333c0.011-0.047,0.028-0.086,0.08-0.08
	c0.051,0.007,0.057,0.058,0.067,0.099c0.075,0.331-0.103,0.684-0.426,0.867c-0.311,0.176-0.63,0.151-0.949,0.045
	c-0.205-0.067-0.402-0.149-0.587-0.266c-0.255-0.163-0.544-0.251-0.839-0.316c-0.043-0.009-0.087-0.012-0.129-0.006
	c-0.106,0.011-0.289-0.009-0.292,0.084c-0.004,0.128,0.178,0.066,0.272,0.105c0.054,0.022,0.12,0.014,0.179,0.02
	c0.05,0.004,0.111-0.008,0.132,0.054c0.021,0.062-0.032,0.091-0.074,0.121c-0.283,0.194-0.589,0.312-0.937,0.323
	c-0.272,0.008-0.53-0.054-0.78-0.146c-0.133-0.048-0.246-0.045-0.365,0.03c-0.566,0.356-1.201,0.517-1.854,0.579
	c-0.345,0.034-0.555,0.229-0.726,0.473c-0.341,0.485-0.562,1.032-0.64,1.617c-0.064,0.491-0.017,1,0.214,1.438
	c0.233,0.44,0.561,0.83,1.063,1.005c0.373,0.13,0.67-0.055,0.744-0.442c0.084-0.438-0.042-0.851-0.134-1.269
	c-0.009-0.042-0.026-0.083-0.041-0.124c-0.174-0.539-0.074-0.857,0.384-1.188c0.212-0.153,0.45-0.236,0.714-0.273
	c0.344-0.049,0.68-0.062,1.023,0.001c0.506,0.093,0.959,0.279,1.287,0.691c0.151,0.188,0.31,0.214,0.54,0.158
	c0.683-0.165,1.374-0.303,2.047-0.508c0.469-0.143,0.922-0.328,1.38-0.505c0.509-0.198,0.917-0.519,1.231-0.961
	c0.126-0.177,0.188-0.379,0.232-0.594c0.084-0.411,0.042-0.799-0.13-1.178c-0.083-0.183-0.187-0.346-0.348-0.474
	c-0.17-0.135-0.17-0.19,0.02-0.295c0.333-0.185,0.694-0.25,1.072-0.19c0.051,0.008,0.101,0.026,0.151,0.033
	c0.847,0.114,1.443,0.998,1.302,1.782c-0.036,0.199-0.047,0.402-0.109,0.598c-0.125,0.396-0.36,0.712-0.645,1.011
	c-0.451,0.473-0.988,0.789-1.59,1.025c-0.68,0.267-1.381,0.464-2.082,0.667c-0.858,0.249-1.733,0.431-2.596,0.656
	c-0.186,0.049-0.217,0.081-0.211,0.259c0.007,0.224,0.083,0.349,0.25,0.366c0.256,0.026,0.514,0.055,0.771,0.052
	c0.75-0.007,1.504,0.077,2.248-0.01c0.599-0.07,1.217-0.122,1.772-0.411c0.368-0.193,0.488-0.437,0.413-0.842
	c-0.033-0.171,0.009-0.234,0.174-0.234c0.607,0,1.083,0.255,1.404,0.769c0.203,0.323,0.165,0.644-0.035,0.972
	c-0.261,0.436-0.67,0.627-1.132,0.74c-0.375,0.092-0.756,0.142-1.145,0.125c-0.402-0.017-0.807,0.005-1.209-0.024
	c-0.521-0.04-1.044-0.066-1.564-0.137c-0.51-0.07-1.024-0.106-1.538-0.15c-0.215-0.019-0.25,0.026-0.25,0.253
	c0,0.268,0.02,0.314,0.28,0.386c0.521,0.146,1.045,0.283,1.574,0.399c0.653,0.144,1.301,0.311,1.97,0.377
	c0.496,0.051,0.996,0.11,1.489,0.014c0.408-0.08,0.726-0.306,0.861-0.727c0.066-0.209,0.118-0.239,0.282-0.094
	c0.271,0.24,0.431,0.528,0.41,0.92c-0.02,0.374-0.17,0.658-0.421,0.911c-0.299,0.301-0.668,0.459-1.083,0.479
	c-0.384,0.018-0.765-0.007-1.142-0.119c-0.784-0.23-1.549-0.517-2.323-0.778c-0.537-0.182-1.071-0.375-1.622-0.514
	c-0.042-0.01-0.084-0.021-0.126-0.029c-0.103-0.016-0.163,0.028-0.18,0.133c-0.033,0.187,0.01,0.287,0.181,0.387
	c0.572,0.334,1.156,0.646,1.753,0.934c0.559,0.269,1.125,0.52,1.698,0.752c0.448,0.182,0.912,0.324,1.393,0.364
	c0.342,0.028,0.685-0.032,0.993-0.208c0.125-0.071,0.202-0.184,0.273-0.304c0.035-0.06,0.066-0.122,0.11-0.173
	c0.061-0.072,0.134-0.069,0.201-0.002c0.019,0.018,0.035,0.039,0.048,0.061c0.271,0.416,0.238,1.303-0.071,1.691
	c-0.12,0.15-0.297,0.231-0.452,0.339c-0.401,0.277-0.834,0.18-1.266,0.106c-0.355-0.061-0.661-0.235-0.97-0.404
	c-0.634-0.346-1.268-0.693-1.889-1.062c-0.419-0.25-0.855-0.474-1.236-0.786c-0.193-0.157-0.408-0.287-0.619-0.42
	c-0.144-0.092-0.221-0.056-0.256,0.108c-0.027,0.122-0.027,0.239,0.073,0.336c0.085,0.085,0.153,0.192,0.25,0.26
	c0.368,0.259,0.681,0.582,1.023,0.868c0.489,0.41,1.007,0.779,1.525,1.149c0.294,0.209,0.587,0.423,0.889,0.621
	c0.465,0.306,0.958,0.543,1.535,0.534c0.279-0.003,0.519-0.091,0.708-0.311c0.077-0.089,0.111-0.191,0.146-0.298
	c0.031-0.096,0.085-0.12,0.172-0.052c0.458,0.361,0.832,1.195,0.337,1.837c-0.181,0.232-0.426,0.32-0.696,0.335
	c-0.492,0.026-0.955-0.106-1.395-0.319c-0.238-0.116-0.475-0.238-0.706-0.368c-0.308-0.173-0.59-0.387-0.864-0.608
	c-0.642-0.519-1.31-1.005-1.931-1.55c-0.368-0.323-0.763-0.616-1.146-0.922c-0.04-0.033-0.082-0.064-0.125-0.09
	c-0.062-0.038-0.114-0.018-0.157,0.038c-0.137,0.176-0.135,0.404,0.013,0.567c0.369,0.409,0.753,0.803,1.137,1.198
	c0.456,0.47,0.946,0.904,1.41,1.367c0.375,0.376,0.745,0.766,1.188,1.069c0.376,0.258,0.748,0.524,1.142,0.753
	c0.512,0.298,1.164,0.197,1.55-0.246c0.154-0.176,0.223-0.177,0.326,0.028c0.142,0.278,0.225,0.576,0.181,0.894
	c-0.02,0.137,0.004,0.275-0.05,0.408c-0.196,0.488-0.4,0.617-0.988,0.686c-0.409,0.047-0.758-0.137-1.087-0.346
	c-0.787-0.5-1.515-1.075-2.177-1.735c-0.396-0.395-0.83-0.752-1.211-1.165c-0.315-0.342-0.647-0.667-0.967-1.003
	c-0.266-0.279-0.521-0.573-0.826-0.813c-0.079-0.061-0.144-0.166-0.263-0.066c-0.128,0.106-0.189,0.301-0.112,0.411
	c0.104,0.148,0.22,0.288,0.334,0.427c0.438,0.53,0.919,1.031,1.309,1.594c0.478,0.69,1.097,1.257,1.575,1.941
	c0.292,0.417,0.632,0.794,0.978,1.165c0.396,0.422,0.81,0.824,1.389,0.996c0.188,0.055,0.377,0.07,0.562,0.025
	c0.294-0.07,0.506-0.244,0.576-0.559c0.052-0.227,0.108-0.248,0.319-0.15c0.26,0.118,0.458,0.302,0.6,0.548
	c0.059,0.104,0.125,0.206,0.179,0.312c0.275,0.539,0.199,1.456-0.66,1.733c-0.084,0.027-0.166,0.05-0.253,0.047
	c-0.542-0.019-1.066-0.102-1.554-0.375c-0.508-0.287-0.957-0.648-1.364-1.056c-0.337-0.339-0.655-0.702-0.952-1.082
	c-0.516-0.657-1.054-1.295-1.571-1.95c-0.304-0.385-0.582-0.789-0.877-1.181c-0.363-0.481-0.73-0.958-1.097-1.435
	c-0.136-0.175-0.182-0.165-0.337-0.007c-0.147,0.149-0.171,0.29-0.085,0.484c0.435,0.973,0.824,1.967,1.367,2.888
	c0.04,0.065,0.065,0.14,0.098,0.21c0.194,0.428,0.484,0.794,0.795,1.137c0.346,0.382,0.729,0.397,1.146,0.098
	c0.122-0.088,0.162-0.083,0.19,0.061c0.071,0.355,0.123,0.712,0.025,1.073c-0.079,0.287-0.262,0.505-0.486,0.684
	c-0.167,0.132-0.375,0.121-0.57,0.059c-0.433-0.138-0.775-0.393-1.025-0.78c-0.338-0.522-0.596-1.085-0.859-1.647
	c-0.233-0.499-0.406-1.021-0.61-1.531c-0.188-0.471-0.407-0.929-0.614-1.393c-0.032-0.07-0.065-0.142-0.096-0.212
	c-0.087-0.199-0.126-0.212-0.3-0.095c-0.028,0.019-0.056,0.04-0.085,0.058c-0.296,0.189-0.33,0.137-0.211,0.535
	c0.174,0.583,0.333,1.173,0.604,1.725c0.096,0.197,0.234,0.362,0.396,0.503c0.13,0.114,0.284,0.181,0.468,0.188
	c0.243,0.012,0.281,0.093,0.187,0.32c-0.169,0.409-0.5,0.566-0.937,0.458c-0.255-0.062-0.439-0.197-0.587-0.421
	c-0.308-0.47-0.466-0.994-0.607-1.527c-0.084-0.316-0.171-0.631-0.263-0.944c-0.05-0.173-0.084-0.185-0.259-0.111
	c-0.056,0.023-0.111,0.046-0.166,0.072c-0.142,0.065-0.207,0.171-0.193,0.33c0.027,0.3,0.097,0.593,0.154,0.888
	c0.159,0.815,0.484,1.564,0.996,2.214c0.348,0.443,0.798,0.778,1.339,0.978c0.347,0.129,0.689,0.254,1.068,0.265
	c0.23,0.007,0.354,0.171,0.335,0.398c-0.021,0.251-0.077,0.483-0.293,0.657c-0.181,0.145-0.175,0.202,0.004,0.332
	c0.245,0.177,0.495,0.345,0.747,0.51c0.568,0.374,1.186,0.665,1.738,1.063c0.106,0.076,0.226,0.125,0.35,0.165
	c0.263,0.087,0.528-0.026,0.642-0.279c0.024-0.054,0.046-0.112,0.057-0.171c0.034-0.19,0.14-0.334,0.289-0.444
	c0.146-0.108,0.245-0.225,0.241-0.425c-0.003-0.158,0.078-0.296,0.194-0.41c0.214-0.209,0.528-0.205,0.692,0.043
	c0.134,0.205,0.294,0.353,0.519,0.44c0.082,0.032,0.144,0.096,0.2,0.163c0.108,0.128,0.106,0.179-0.009,0.363
	c-0.079,0.013-0.12-0.056-0.168-0.095c-0.109-0.089-0.232-0.101-0.365-0.099c-0.091,0.001-0.142,0.034-0.149,0.134
	c-0.024,0.318-0.226,0.474-0.516,0.52c-0.211,0.032-0.307,0.178-0.39,0.338c-0.067,0.129,0.004,0.219,0.152,0.206
	c0.06-0.005,0.117-0.027,0.175-0.046c0.252-0.082,0.506-0.165,0.76-0.247c0.126-0.042,0.227-0.119,0.31-0.221
	c0.044-0.053,0.087-0.109,0.141-0.15c0.256-0.192,0.443-0.19,0.604,0.074c0.061,0.1,0.13,0.141,0.251,0.131
	c0.19-0.017,0.319,0.095,0.366,0.265c0.083,0.304,0.094,0.611-0.086,0.895c-0.032,0.051-0.062,0.112-0.139,0.08
	c-0.068-0.029-0.027-0.084-0.027-0.133c0-0.122-0.036-0.237-0.096-0.343c-0.059-0.102-0.126-0.106-0.204-0.019
	c-0.039,0.044-0.064,0.102-0.103,0.147c-0.143,0.17-0.292,0.218-0.5,0.135c-0.11-0.044-0.193-0.036-0.289,0.027
	c-0.077,0.052-0.171,0.079-0.256,0.12c-0.118,0.059-0.13,0.121-0.019,0.172c0.205,0.094,0.265,0.252,0.25,0.46
	c-0.012,0.181-0.009,0.361,0.07,0.532c0.033,0.072,0.035,0.161,0.008,0.229c-0.103,0.26-0.27,0.477-0.5,0.636
	c-0.038,0.025-0.094,0.058-0.144,0.02c-0.054-0.042-0.019-0.093-0.005-0.142c0.037-0.133,0.071-0.266,0.038-0.407
	c-0.039-0.173-0.118-0.232-0.272-0.15c-0.167,0.088-0.312,0.074-0.457-0.029c-0.147-0.106-0.244-0.243-0.234-0.435
	c0-0.017,0-0.035,0-0.052c0.006-0.169-0.055-0.308-0.207-0.387c-0.142-0.074-0.372-0.016-0.498,0.118
	c-0.07,0.075-0.127,0.163-0.19,0.244c-0.24,0.307-0.516,0.538-0.945,0.443c-0.073-0.017-0.136,0.002-0.186,0.061
	c-0.075,0.088-0.178,0.134-0.273,0.192c-0.153,0.095-0.298,0.104-0.452-0.017c-0.142-0.111-0.184-0.099-0.293,0.046
	c-0.067,0.089-0.122,0.187-0.139,0.303c-0.01,0.058-0.021,0.119-0.046,0.172c-0.046,0.096-0.121,0.108-0.179,0.026
	c-0.194-0.276-0.348-0.662-0.032-0.985c0.136-0.139,0.228-0.301,0.265-0.493c0.008-0.042,0.025-0.083,0.046-0.12
	c0.189-0.329,0.397-0.458,0.709-0.187c0.119,0.104,0.222,0.103,0.352,0.046c0.141-0.062,0.276-0.135,0.43-0.171
	c0.117-0.027,0.136-0.113,0.068-0.221c-0.065-0.106-0.169-0.171-0.273-0.231c-0.484-0.279-0.974-0.549-1.452-0.837
	c-0.428-0.258-0.899-0.436-1.311-0.723c-0.042-0.03-0.1-0.076-0.164-0.026c-0.062,0.047-0.037,0.102-0.03,0.164
	c0.016,0.147-0.016,0.286-0.088,0.417c-0.118,0.211-0.238,0.249-0.438,0.109c-0.197-0.138-0.392-0.283-0.57-0.443
	c-0.704-0.633-1.265-1.377-1.726-2.204c-0.266-0.475-0.5-0.961-0.678-1.475c-0.019-0.056-0.028-0.133-0.104-0.123
	c-0.086,0.011-0.092,0.102-0.086,0.162c0.023,0.223-0.019,0.444-0.003,0.666c0.047,0.699,0.207,1.372,0.44,2.034
	c0.154,0.441,0.424,0.799,0.691,1.166c0.373,0.515,0.866,0.905,1.37,1.281c0.205,0.153,0.444,0.261,0.667,0.39
	c0.155,0.09,0.167,0.113,0.114,0.289c-0.03,0.098-0.061,0.199-0.113,0.287c-0.199,0.337-0.488,0.437-0.861,0.301
	c-0.421-0.155-0.773-0.409-1.061-0.754c-0.254-0.303-0.506-0.608-0.726-0.939c-0.028-0.042-0.051-0.09-0.129-0.087
	c-0.057,0.117-0.061,0.257-0.012,0.365c0.176,0.385,0.261,0.8,0.436,1.186c0.258,0.564,0.68,0.942,1.227,1.198
	c0.332,0.155,0.351,0.221,0.147,0.531c-0.118,0.179-0.266,0.266-0.491,0.271c-0.346,0.008-0.632-0.097-0.906-0.306
	c-0.457-0.351-0.783-0.793-1.019-1.311c-0.091-0.201-0.186-0.399-0.277-0.595c-0.066,0.016-0.085,0.052-0.089,0.098
	c-0.061,0.658,0.036,1.287,0.359,1.867c0.22,0.396,0.542,0.684,0.97,0.851c0.388,0.153,0.313,0.137,0.159,0.456
	c-0.149,0.307-0.562,0.584-1,0.297c-0.243-0.159-0.457-0.349-0.612-0.586c-0.282-0.43-0.572-0.86-0.703-1.37
	c-0.042-0.166-0.071-0.334-0.113-0.5c-0.012-0.044-0.018-0.11-0.09-0.104c-0.051,0.004-0.072,0.047-0.083,0.088
	c-0.103,0.418-0.208,0.841-0.147,1.272c0.088,0.617,0.299,1.197,0.609,1.74c0.091,0.157,0.212,0.293,0.314,0.441
	c0.111,0.161,0.111,0.168-0.021,0.305c-0.186,0.193-0.37,0.386-0.56,0.574c-0.355,0.351-0.596,0.776-0.812,1.218
	c-0.015,0.03-0.032,0.059-0.047,0.084c-0.098-0.006-0.115-0.08-0.143-0.14c-0.315-0.647-0.705-1.24-1.237-1.733
	c-0.181-0.169-0.185-0.183-0.035-0.383c0.364-0.485,0.581-1.036,0.701-1.621c0.077-0.379,0.046-0.772-0.001-1.159
	c-0.01-0.085-0.022-0.17-0.035-0.254c-0.006-0.037-0.024-0.067-0.062-0.071c-0.034-0.004-0.067,0.007-0.087,0.04
	c-0.01,0.015-0.02,0.029-0.027,0.044c-0.171,0.347-0.352,0.69-0.509,1.043c-0.126,0.285-0.278,0.552-0.46,0.805
	c-0.187,0.26-0.449,0.4-0.744,0.481c-0.445,0.122-0.842-0.207-0.974-0.541c-0.032-0.08-0.007-0.133,0.066-0.167
	c0.023-0.011,0.048-0.021,0.072-0.028c0.567-0.191,0.923-0.613,1.203-1.111c0.16-0.282,0.216-0.654,0.15-0.956
	c-0.114,0.047-0.159,0.149-0.218,0.238c-0.205,0.311-0.441,0.593-0.729,0.832c-0.243,0.203-0.526,0.327-0.829,0.397
	c-0.417,0.098-0.876-0.123-1.044-0.479c-0.03-0.064-0.052-0.127-0.056-0.198c-0.008-0.184,0.027-0.221,0.218-0.205
	c0.161,0.015,0.313-0.025,0.45-0.093c0.511-0.254,0.896-0.631,1.122-1.163c0.095-0.222,0.157-0.455,0.229-0.685
	c0.012-0.041,0.016-0.085,0.017-0.127c0.002-0.049,0.017-0.109-0.038-0.139c-0.059-0.03-0.101,0.018-0.13,0.057
	c-0.139,0.189-0.316,0.343-0.498,0.486c-0.343,0.268-0.662,0.58-1.098,0.705c-0.216,0.062-0.431,0.104-0.654,0.016
	c-0.344-0.134-0.436-0.439-0.443-0.722c-0.004-0.147,0.105-0.2,0.235-0.226c0.254-0.051,0.499-0.122,0.72-0.268
	c0.487-0.322,0.902-0.706,1.235-1.192c0.404-0.594,0.582-1.265,0.693-1.95c0.089-0.549,0.146-1.108,0.131-1.669
	c-0.003-0.103,0.005-0.206,0.029-0.307c0.011-0.044-0.015-0.089-0.057-0.105c-0.051-0.02-0.076,0.02-0.094,0.061
	c-0.083,0.198-0.168,0.396-0.252,0.593c-0.271,0.643-0.598,1.257-0.958,1.854c-0.263,0.435-0.56,0.848-0.837,1.273
	c-0.123,0.19-0.297,0.31-0.481,0.419c-0.139,0.082-0.205,0.057-0.3-0.083c-0.09-0.131-0.122-0.283-0.15-0.435
	c-0.009-0.052-0.006-0.105-0.019-0.155c-0.047-0.171-0.125-0.208-0.279-0.116c-0.304,0.181-0.646,0.284-0.945,0.47
	c-0.539,0.338-1.114,0.616-1.64,0.975c-0.021,0.015-0.043,0.028-0.062,0.045c-0.23,0.201-0.202,0.44,0.088,0.525
	c0.25,0.075,0.459,0.175,0.613,0.392c0.067,0.095,0.178,0.092,0.281,0.035c0.122-0.067,0.248-0.124,0.39-0.12
	c0.303,0.009,0.417,0.18,0.306,0.459c-0.016,0.04-0.033,0.082-0.061,0.112c-0.096,0.099-0.103,0.219-0.068,0.338
	c0.072,0.25-0.017,0.458-0.164,0.647c-0.115,0.15-0.23,0.304-0.411,0.384c-0.042,0.019-0.081,0.031-0.118-0.007
	c-0.035-0.036-0.03-0.074-0.005-0.116c0.079-0.128,0.104-0.272,0.104-0.42c0-0.154-0.062-0.195-0.209-0.152
	c-0.049,0.015-0.097,0.037-0.147,0.048c-0.215,0.045-0.302-0.022-0.314-0.244c-0.015-0.244-0.028-0.255-0.275-0.264
	c-0.223-0.007-0.442-0.043-0.656-0.116c-0.197-0.067-0.354-0.182-0.472-0.345c-0.091-0.127-0.166-0.135-0.298-0.054
	c-0.122,0.076-0.267,0.133-0.418,0.093c-0.133-0.037-0.22,0.03-0.286,0.124c-0.158,0.225-0.341,0.404-0.623,0.466
	c-0.109,0.024-0.125,0.126-0.105,0.232c0.034,0.171,0.143,0.285,0.276,0.388c0.105,0.081,0.093,0.125-0.024,0.174
	c-0.545,0.227-1.145-0.35-1.012-0.82c0.034-0.119-0.025-0.198-0.081-0.285c-0.145-0.228-0.139-0.38,0.036-0.581
	c0.084-0.096,0.184-0.181,0.283-0.263c0.09-0.073,0.109-0.148,0.042-0.245c-0.034-0.049-0.059-0.105-0.091-0.156
	c-0.057-0.091-0.131-0.135-0.239-0.084c-0.237,0.108-0.41,0.016-0.563-0.167c-0.184-0.22-0.371-0.23-0.587-0.039
	c-0.052,0.045-0.086,0.11-0.14,0.151c-0.051,0.041-0.115,0.043-0.144-0.037c-0.065-0.186,0.073-0.651,0.236-0.785
	c0.053-0.043,0.114-0.105,0.172-0.107c0.26-0.007,0.487-0.13,0.731-0.184c0.295-0.067,0.563,0.072,0.753,0.305
	c0.161,0.197,0.344,0.234,0.573,0.171c0.156-0.042,0.2-0.084,0.188-0.22c-0.011-0.144-0.11-0.263-0.232-0.267
	c-0.067-0.001-0.135,0.022-0.203,0.033c-0.188,0.029-0.314-0.052-0.363-0.235c-0.037-0.137-0.022-0.299-0.183-0.376
	c-0.167-0.082-0.345-0.1-0.528-0.084c-0.078,0.006-0.188,0.097-0.226-0.018c-0.03-0.092,0.073-0.162,0.153-0.213
	c0.216-0.14,0.439-0.227,0.706-0.137c0.164,0.053,0.321,0.042,0.486-0.061c0.253-0.158,0.586-0.095,0.785,0.097
	c0.109,0.105,0.147,0.235,0.146,0.373c0,0.106,0.038,0.178,0.103,0.251c0.111,0.124,0.172,0.272,0.219,0.433
	c0.042,0.147,0.106,0.293,0.19,0.42c0.125,0.194,0.392,0.311,0.671,0.154c0.873-0.49,1.685-1.068,2.505-1.636
	c0.042-0.03,0.086-0.058,0.125-0.092c0.076-0.068,0.098-0.139,0.004-0.213c-0.048-0.037-0.09-0.082-0.141-0.112
	c-0.18-0.109-0.23-0.297-0.288-0.475c-0.054-0.166,0.071-0.263,0.187-0.332c0.162-0.096,0.334-0.185,0.513-0.242
	c0.502-0.16,0.948-0.407,1.317-0.783c0.285-0.291,0.506-0.633,0.707-0.984c0.183-0.319,0.354-0.646,0.492-0.991
	c0.209-0.521,0.362-1.056,0.473-1.604c0.021-0.104,0.024-0.206,0.031-0.307c0.021-0.332-0.002-0.304-0.285-0.48
	c-0.098-0.061-0.163-0.021-0.174,0.099c-0.068,0.726-0.319,1.403-0.597,2.066c-0.13,0.309-0.349,0.566-0.579,0.816
	c-0.233,0.252-0.689,0.127-0.815-0.136c-0.034-0.069-0.056-0.145-0.081-0.217c-0.039-0.115-0.004-0.212,0.103-0.261
	c0.569-0.264,0.723-0.804,0.878-1.332c0.115-0.396,0.194-0.802,0.287-1.204c0.017-0.075,0.023-0.153,0.033-0.229
	c0.015-0.104-0.024-0.185-0.111-0.243c-0.049-0.034-0.097-0.072-0.146-0.106c-0.275-0.198-0.299-0.187-0.406,0.146
	c-0.173,0.54-0.273,1.105-0.502,1.625c-0.231,0.522-0.332,1.084-0.557,1.605c-0.125,0.292-0.234,0.597-0.401,0.864
	c-0.28,0.442-0.589,0.871-1.008,1.199c-0.254,0.198-0.559,0.304-0.872,0.229c-0.277-0.065-0.531-0.224-0.687-0.475
	c-0.187-0.302-0.321-0.627-0.242-0.998c0.031-0.146,0.06-0.162,0.188-0.082c0.316,0.199,0.62,0.129,0.928-0.018
	c0.406-0.194,0.619-0.562,0.84-0.917c0.347-0.557,0.588-1.167,0.864-1.759c0.251-0.538,0.424-1.107,0.697-1.636
	c0.051-0.098,0.063-0.217,0.118-0.312c0.124-0.217,0.063-0.391-0.092-0.557c-0.091-0.098-0.148-0.107-0.223,0.003
	c-0.093,0.137-0.216,0.248-0.311,0.378c-0.242,0.333-0.476,0.672-0.698,1.019c-0.094,0.146-0.198,0.282-0.307,0.413
	c-0.277,0.333-0.465,0.723-0.726,1.065c-0.371,0.485-0.756,0.959-1.112,1.456c-0.329,0.458-0.711,0.865-1.1,1.264
	c-0.366,0.374-0.733,0.756-1.162,1.057c-0.401,0.282-0.846,0.502-1.343,0.559c-0.336,0.039-0.667-0.034-0.986-0.143
	c-0.149-0.051-0.269-0.156-0.362-0.283c-0.475-0.647-0.279-1.584,0.382-2.021c0.113-0.075,0.174-0.054,0.196,0.084
	c0.069,0.457,0.408,0.586,0.786,0.658c0.335,0.062,0.646-0.029,0.935-0.208c0.532-0.33,0.979-0.75,1.394-1.218
	c0.32-0.361,0.648-0.714,0.96-1.081c0.21-0.249,0.391-0.523,0.6-0.774c0.756-0.906,1.461-1.85,2.143-2.813
	c0.02-0.028,0.039-0.057,0.058-0.085c0.202-0.308,0.191-0.415-0.057-0.693c-0.075-0.084-0.138-0.079-0.217-0.004
	c-0.12,0.114-0.212,0.249-0.319,0.372c-0.601,0.686-1.189,1.384-1.808,2.052c-0.521,0.562-1.063,1.107-1.636,1.619
	c-0.302,0.27-0.592,0.55-0.912,0.8c-0.444,0.347-0.931,0.592-1.489,0.665c-0.271,0.035-0.551,0.019-0.811-0.086
	c-0.478-0.194-0.732-0.756-0.59-1.257c0.092-0.321,0.217-0.617,0.487-0.831c0.054-0.042,0.106-0.086,0.164-0.125
	c0.088-0.058,0.165-0.037,0.22,0.051c0.026,0.043,0.043,0.094,0.067,0.138c0.12,0.217,0.289,0.35,0.544,0.384
	c0.406,0.058,0.778-0.054,1.111-0.255c0.581-0.353,1.136-0.75,1.575-1.282c0.098-0.119,0.227-0.21,0.339-0.318
	c0.711-0.676,1.36-1.41,1.993-2.159c0.206-0.244,0.344-0.536,0.574-0.762c0.118-0.116,0.098-0.328-0.005-0.453
	c-0.038-0.046-0.086-0.059-0.138-0.031c-0.044,0.024-0.089,0.054-0.125,0.09c-0.245,0.242-0.486,0.488-0.73,0.731
	c-0.378,0.375-0.748,0.762-1.169,1.09c-0.36,0.28-0.676,0.611-1.03,0.898c-0.448,0.362-0.881,0.749-1.399,1.011
	c-0.246,0.124-0.491,0.278-0.754,0.329c-0.405,0.079-0.821,0.076-1.193-0.182c-0.313-0.217-0.386-0.55-0.476-0.884
	c-0.129-0.483,0.05-0.875,0.349-1.235c0.12-0.146,0.181-0.157,0.312-0.014c0.24,0.26,0.544,0.381,0.883,0.439
	c0.322,0.054,0.632,0.006,0.928-0.13c0.582-0.266,1.119-0.606,1.638-0.976c0.852-0.605,1.593-1.338,2.367-2.034
	c0.152-0.137,0.204-0.287,0.146-0.482c-0.04-0.132-0.101-0.161-0.197-0.069c-0.418,0.402-0.899,0.719-1.387,1.026
	c-0.248,0.157-0.457,0.364-0.706,0.521c-0.639,0.403-1.331,0.685-2.061,0.859c-0.401,0.096-0.826,0.1-1.23,0.013
	c-0.594-0.128-0.99-0.492-1.144-1.096c-0.03-0.121-0.014-0.241,0.007-0.359c0.054-0.3,0.226-0.538,0.438-0.744
	c0.113-0.111,0.207-0.088,0.252,0.06c0.166,0.533,0.606,0.639,1.069,0.692c0.274,0.032,0.546-0.023,0.809-0.125
	c0.225-0.087,0.458-0.151,0.684-0.232c0.66-0.236,1.259-0.593,1.879-0.911c0.361-0.186,0.684-0.431,1.04-0.623
	c0.294-0.158,0.358-0.361,0.242-0.667c-0.031-0.083-0.094-0.093-0.167-0.079c-0.137,0.024-0.256,0.098-0.38,0.156
	c-0.788,0.364-1.552,0.784-2.381,1.054c-0.637,0.207-1.281,0.416-1.953,0.431c-0.633,0.015-1.181-0.236-1.558-0.766
	c-0.216-0.305-0.251-0.65-0.091-1.004c0.093-0.207,0.218-0.391,0.362-0.562c0.111-0.132,0.196-0.123,0.262,0.044
	c0.144,0.362,0.437,0.517,0.788,0.593c0.399,0.087,0.797,0.074,1.205,0.032c0.848-0.087,1.682-0.247,2.513-0.426
	c0.386-0.082,0.765-0.194,1.146-0.301c0.173-0.049,0.258-0.326,0.152-0.464c-0.04-0.053-0.096-0.067-0.16-0.064
	c-0.679,0.022-1.356,0.063-2.034,0.103c-0.81,0.048-1.617,0.044-2.426,0.044c-0.652,0-1.206-0.241-1.634-0.748
	c-0.083-0.097-0.109-0.211-0.144-0.328c-0.225-0.77,0.262-1.375,0.822-1.602c0.168-0.068,0.18-0.053,0.199,0.141
	c0.022,0.211,0.11,0.392,0.256,0.551c0.281,0.306,0.641,0.458,1.034,0.541c0.708,0.148,1.423,0.243,2.147,0.267
	c0.428,0.014,0.856,0.058,1.286,0.069c0.23,0.005,0.462-0.025,0.693-0.043c0.064-0.005,0.11-0.047,0.135-0.107
	c0.017-0.039,0.028-0.081,0.041-0.122c0.097-0.32,0.065-0.38-0.263-0.428c-1.188-0.175-2.333-0.516-3.464-0.898
	c-0.688-0.233-1.371-0.508-1.973-0.94c-0.326-0.232-0.617-0.498-0.863-0.81c-0.148-0.189-0.251-0.405-0.302-0.649
	c-0.053-0.252-0.086-0.503-0.103-0.762c-0.04-0.554,0.499-1.281,1.154-1.354c0.327-0.037,0.609,0.073,0.896,0.183
	c0.094,0.036,0.122,0.123,0.077,0.215c-0.378,0.78-0.07,1.378,0.507,1.901c0.354,0.32,0.766,0.555,1.191,0.763
	c0.596,0.291,1.191,0.58,1.814,0.81c0.507,0.188,1.011,0.39,1.519,0.577c0.225,0.083,0.242,0.066,0.378-0.126
	c0.39-0.547,0.934-0.818,1.59-0.89c0.465-0.051,0.899,0.04,1.322,0.237c0.423,0.197,0.521,0.676,0.403,1.057
	c-0.043,0.14-0.117,0.268-0.19,0.395c-0.182,0.309-0.217,0.631-0.16,0.99c0.091,0.561,0.806,0.994,1.464,0.665
	c0.469-0.233,0.759-0.608,0.853-1.13c0.028-0.16,0.012-0.323,0.013-0.48c0-0.941-0.248-1.804-0.92-2.499
	c-0.166-0.172-0.373-0.302-0.588-0.416c-0.158-0.083-0.322-0.125-0.497-0.111c-0.662,0.055-1.299-0.085-1.929-0.26
	c-0.081-0.023-0.149-0.012-0.224,0.014c-0.154,0.053-0.311,0.1-0.465,0.151c-0.29,0.097-0.566,0.027-0.826-0.092
	c-0.19-0.086-0.284-0.272-0.344-0.465c-0.029-0.093,0.024-0.15,0.12-0.139c0.095,0.009,0.188,0.034,0.278-0.01
	c0.029-0.014,0.063-0.03,0.063-0.072c0-0.045-0.036-0.055-0.065-0.068c-0.158-0.075-0.326-0.058-0.483-0.021
	c-0.156,0.037-0.316,0.078-0.459,0.165c-0.332,0.199-0.708,0.268-1.082,0.318c-0.331,0.044-0.604-0.113-0.821-0.354
	c-0.159-0.176-0.16-0.395-0.104-0.612c0.04-0.153,0.119-0.169,0.223-0.053c0.07,0.077,0.138,0.155,0.197,0.24
	c0.143,0.202,0.338,0.286,0.579,0.271c0.258-0.016,0.517-0.038,0.76-0.129c0.294-0.111,0.605-0.125,0.912-0.155
	c0.207-0.021,0.403,0.075,0.601,0.128c0.058,0.016,0.114,0.039,0.172,0.051c0.056,0.013,0.103-0.009,0.132-0.059
	c0.034-0.056,0.006-0.104-0.036-0.134c-0.247-0.178-0.495-0.357-0.826-0.212c-0.039,0.017-0.073,0.044-0.115,0.008
	c-0.05-0.043-0.03-0.092-0.016-0.141c0.04-0.127,0.119-0.227,0.219-0.313c0.393-0.34,0.843-0.413,1.327-0.26
	c0.155,0.049,0.241,0.042,0.352-0.089c0.174-0.205,0.432-0.193,0.674-0.167c0.29,0.03,0.576,0.093,0.867,0.119
	c0.378,0.034,0.74-0.017,1.028-0.304c0.018-0.017,0.042-0.027,0.065-0.039C49.9,35.418,49.911,35.424,49.928,35.427z M47.803,36.631
	c0.12-0.028,0.26-0.022,0.365-0.129c0.022-0.023,0.009-0.053-0.01-0.065c-0.122-0.088-0.258-0.073-0.392-0.042
	c-0.085,0.021-0.224,0.023-0.213,0.134C47.563,36.641,47.708,36.596,47.803,36.631z M59.67,36.386
	c-0.199-0.11-0.365-0.102-0.535-0.052c-0.032,0.01-0.062,0.033-0.065,0.072c-0.004,0.053,0.034,0.081,0.075,0.089
	C59.316,36.528,59.482,36.528,59.67,36.386z"/>
</svg>
