<?xml version="1.0" encoding="utf-8"?>
<!-- Generator: Adobe Illustrator 16.0.0, SVG Export Plug-In . SVG Version: 6.00 Build 0)  -->
<!DOCTYPE svg PUBLIC "-//W3C//DTD SVG 1.1//EN" "http://www.w3.org/Graphics/SVG/1.1/DTD/svg11.dtd">
<svg version="1.1" id="Layer_2" xmlns="http://www.w3.org/2000/svg" xmlns:xlink="http://www.w3.org/1999/xlink" x="0px" y="0px"
	 width="100px" height="100px" viewBox="0 0 100 100" enable-background="new 0 0 100 100" xml:space="preserve">
<rect x="5" y="20" fill="#E33D3A" width="90" height="60"/>
<path fill="#FDBB30" d="M20.561,29.13c0,0,6.915,3.568,3.618,8.626l-5.125-4.493l1.558-1.739l-3.229-0.338l-2.778,3.207l2.01,1.761
	l1.355-1.468l4.854,4.539c0,0-2.167,2.055-4.899-0.926l-0.836,0.045l-0.858,0.887l-0.458-0.466c0,0-0.136-0.195-0.446,0.113
	c-0.217,0.215,0,0.39,0,0.39l0.338,0.381c0,0-1.033,0.466-2.142,1.82c0,0-0.423,0.466,0.204,1.152
	c0.555,0.608,1.075,0.407,1.27,0.229c0.195-0.178,1.27-1.245,1.761-2.041c0,0,0.093-0.211,0.229-0.084s0.271,0.288,0.271,0.288
	s0.152,0.211,0.423-0.059s0.034-0.449,0-0.483c-0.034-0.034-0.449-0.482-0.449-0.482s-0.152-0.152,0.077-0.339
	c0,0,1.868,2.105,3.934,2.105s3.274-1.083,3.274-1.083l2.314,2.055c0,0,0.407,0.553,1.152-0.192
	c0.745-0.745-0.045-1.185-0.045-1.185l-2.1-2.021C25.839,39.325,30.705,32.043,20.561,29.13z"/>
<polygon fill="none" stroke="#FDBB30" stroke-width="0.3" stroke-miterlimit="10" points="20.598,24.661 21.038,25.995 
	22.442,26.001 21.31,26.832 21.738,28.17 20.598,27.35 19.458,28.17 19.885,26.832 18.753,26.001 20.158,25.995 "/>
</svg>
