<?xml version="1.0" encoding="utf-8"?>
<!-- Generator: Adobe Illustrator 16.0.0, SVG Export Plug-In . SVG Version: 6.00 Build 0)  -->
<!DOCTYPE svg PUBLIC "-//W3C//DTD SVG 1.1//EN" "http://www.w3.org/Graphics/SVG/1.1/DTD/svg11.dtd">
<svg version="1.1" id="Layer_1" xmlns="http://www.w3.org/2000/svg" xmlns:xlink="http://www.w3.org/1999/xlink" x="0px" y="0px"
	 width="612px" height="792px" viewBox="0 0 612 792" enable-background="new 0 0 612 792" xml:space="preserve">
<rect x="24.154" y="36.333" fill="#EE3426" width="90" height="60"/>
<path fill-rule="evenodd" clip-rule="evenodd" d="M62.345,62.847c-0.308-0.079-0.616-0.158-1.126-0.289
	c0.499-0.256,0.881-0.454,1.265-0.647c0.282-0.142,0.615-0.225,0.84-0.429c0.594-0.536,1.259-0.792,1.991-0.442
	c0.83,0.396,1.657,0.467,2.635,0.348c-0.277,0.357-0.553,0.713-0.826,1.066c0.402,0.133,0.83,0.275,1.355,0.449
	c-0.342,0.169-0.564,0.281-0.855,0.425c0.424,0.225,0.775,0.412,1.139,0.605c-0.598,0.524-0.461,1.064,0.402,1.757
	c0.881-0.647,1.032-1.222,0.399-1.747c0.201-0.102,0.382-0.19,0.559-0.284c0.181-0.095,0.358-0.195,0.612-0.333
	c-0.287-0.136-0.52-0.248-0.886-0.422c0.537-0.164,0.972-0.296,1.405-0.428c-0.287-0.363-0.573-0.726-0.859-1.089
	c1.054,0.187,1.945-0.025,2.848-0.417c0.596-0.259,1.194-0.045,1.662,0.414c0.301,0.296,0.572,0.53,1.057,0.564
	c0.359,0.025,0.697,0.362,1.154,0.623c-0.48,0.117-0.791,0.192-1.145,0.278c0.755,0.464,1.569,0.277,2.057-0.408
	c0.135-0.191,0.289-0.461,0.473-0.499c0.184-0.037,0.607,0.21,0.596,0.268c-0.062,0.32-0.145,0.779-0.371,0.897
	c-0.535,0.279-1.146,0.49-1.744,0.547c-0.698,0.067-1.422-0.009-2.121-0.109c-1.658-0.236-3.518,1.608-3.531,3.23
	c-0.006,0.497-0.105,1.034,0.38,1.384c0.15,0.107,0.401,0.208,0.546,0.152c0.15-0.057,0.303-0.301,0.317-0.475
	c0.019-0.232-0.044-0.504-0.162-0.709c-0.478-0.837-0.249-1.697,0.596-2.191c1.075-0.629,2.249-0.492,3.401-0.489
	c0.307,0.745,0.753,0.964,1.574,0.712c0.756-0.232,1.377-0.639,1.689-1.432c0.248-0.63,0.531-1.251,0.861-1.841
	c0.102-0.178,0.432-0.348,0.621-0.316c0.164,0.029,0.377,0.339,0.396,0.542c0.191,1.882-0.678,3.318-2.578,3.83
	c-0.551,0.147-1.158,0.077-1.734,0.152c-0.207,0.026-0.397,0.186-0.595,0.283c0.174,0.113,0.332,0.281,0.522,0.328
	c1.369,0.336,2.455-0.273,3.434-1.122c0.336-0.29,0.658-0.378,1.008-0.141c0.418,0.284,0.148,0.609-0.002,0.931
	c-0.486,1.058-2.172,1.457-3.018,1.307c-0.666-0.119-1.322-0.291-2.115-0.338c0.132,0.145,0.239,0.375,0.398,0.42
	c0.812,0.226,1.633,0.492,2.461,0.56c0.441,0.036,0.92-0.284,1.367-0.478c0.398-0.172,0.812-0.476,1.191-0.072
	c0.297,0.316-0.047,1.033-0.594,1.346c-1.121,0.643-2.24,0.438-3.342-0.04c-0.467-0.204-0.904-0.483-1.354-0.729
	c-0.051,0.045-0.102,0.09-0.15,0.135c0.231,0.275,0.443,0.568,0.697,0.822c1.043,1.041,2.039,1.236,3.355,0.681
	c0.611-0.259,1.24-0.046,1.428,0.482c0.137,0.382-0.238,0.97-0.822,1.05c-0.502,0.07-1.098,0.062-1.537-0.15
	c-0.961-0.467-1.845-1.094-2.773-1.633c-0.165-0.096-0.391-0.086-0.59-0.125c0.082,0.211,0.102,0.504,0.255,0.616
	c0.866,0.634,1.782,1.198,2.644,1.839c0.525,0.391,1.109,0.415,1.666,0.311c0.482-0.091,0.896-0.061,1.152,0.309
	c0.143,0.207,0.176,0.734,0.039,0.844c-0.365,0.29-0.873,0.635-1.281,0.586c-0.525-0.063-1.082-0.404-1.496-0.771
	c-1.012-0.897-1.981-1.838-3.362-2.48c0.096,0.277,0.104,0.501,0.22,0.606c1.078,0.984,2.176,1.948,3.268,2.917
	c0.361,0.32,0.758,0.414,1.205,0.181c0.109-0.058,0.229-0.114,0.348-0.13c0.424-0.055,0.895-0.277,1.1,0.381
	c0.199,0.646,0.047,1.105-0.529,1.383c-0.811,0.391-1.42,0.325-2.02-0.336c-0.824-0.909-1.57-1.89-2.401-2.793
	c-0.383-0.416-0.878-0.732-1.343-1.062c-0.09-0.063-0.283,0.018-0.428,0.031c-0.006,0.055-0.012,0.109-0.018,0.164
	c0.252,0.164,0.497,0.338,0.755,0.49c0.887,0.525,1.304,1.421,1.8,2.258c0.293,0.496,0.588,0.998,0.93,1.461
	c0.385,0.52,0.855,0.924,1.586,0.804c0.229-0.038,0.465-0.009,0.695-0.005c0.387,0.008,0.84-0.107,0.953,0.459
	c0.105,0.529-0.221,1.152-0.713,1.307c-1.219,0.381-1.969-0.084-2.789-1.228c-0.766-1.069-1.34-2.276-2.058-3.384
	c-0.308-0.475-0.734-0.886-1.163-1.261c-0.178-0.153-0.505-0.181-0.764-0.183c-0.269-0.004-0.42,0.117-0.242,0.443
	c0.558,1.029,1.055,2.094,1.65,3.1c0.168,0.285,0.569,0.501,0.908,0.604c0.539,0.165,0.889,0.482,0.734,0.891
	c-0.188,0.492-0.588,0.416-1.001,0.33c-0.718-0.148-1.072-0.682-1.354-1.265c-0.418-0.872-0.758-1.78-1.197-2.641
	c-0.207-0.405-0.578-0.683-1.198-0.228c0.321,0.407,0.656,0.785,0.931,1.2c0.121,0.185,0.123,0.449,0.178,0.677
	c-0.254,0.013-0.564,0.125-0.749,0.018c-0.36-0.208-0.651-0.538-1.015-0.855c-0.046,0.814,0.383,1.428,0.939,1.838
	c0.722,0.531,1.581,0.872,2.354,1.341c0.177,0.106,0.298,0.391,0.339,0.612c0.038,0.205-0.064,0.438-0.102,0.637
	c0.402,0.293,0.817,0.535,1.158,0.855c0.428,0.402,0.656,0.215,1.007-0.125c0.403-0.391,0.89-0.742,1.403-0.953
	c0.252-0.105,0.648,0.145,0.99,0.352c-0.941-0.326-0.719,0.568-0.953,0.775c0.416,0.049,0.887,0.047,1.311,0.184
	c0.188,0.062,0.283,0.412,0.42,0.631c-0.051,0.037-0.104,0.076-0.152,0.113c-0.17-0.072-0.34-0.143-0.436-0.184
	c-0.285,0.271-0.523,0.498-0.781,0.744c0.348,1.049,0.314,1.137-0.738,1.764c0-0.273,0-0.527,0-0.678
	c-0.933-0.395-1.781-0.117-2.702,0.045c0.101,0.158,0.188,0.299,0.28,0.441c-0.029,0.021-0.064,0.066-0.084,0.061
	c-0.199-0.07-0.415-0.119-0.582-0.236c-0.051-0.037,0.012-0.275,0.062-0.406c0.222-0.551,0.458-1.098,0.699-1.672
	c-0.693-0.463-1.291-1.094-2.248-0.754c-0.102,0.035-0.307-0.166-0.439-0.283c-0.842-0.75-1.669-1.518-2.518-2.258
	c-0.146-0.127-0.376-0.158-0.627-0.256c0.225,1.436,2.5,3.201,4.216,3.379c-0.216,0.564-0.644,0.758-1.297,0.549
	c-0.409-0.133-0.8-0.326-1.204-0.469c-0.113-0.039-0.252,0-0.379,0.004c0.014,0.129,0,0.271,0.049,0.387
	c0.262,0.625,0.93,0.963,1.618,0.896c0.214-0.021,0.491,0.053,0.646,0.189c0.104,0.094,0.129,0.482,0.046,0.543
	c-0.226,0.164-0.573,0.369-0.788,0.299c-0.541-0.176-1.027-0.514-1.555-0.742c-0.191-0.082-0.439-0.033-0.661-0.043
	c0.021,0.232-0.042,0.541,0.083,0.682c0.24,0.271,0.574,0.469,0.891,0.658c0.336,0.201,0.674,0.391,0.588,0.85
	c-0.023,0.125-0.23,0.336-0.289,0.316c-0.369-0.125-0.796-0.227-1.061-0.482c-0.316-0.305-0.461-0.779-0.738-1.135
	c-0.133-0.174-0.396-0.248-0.603-0.367c-0.064,0.254-0.242,0.545-0.173,0.754c0.217,0.652,0.479,1.301,0.818,1.896
	c0.25,0.439,0.325,0.709-0.101,1.102c-0.591,0.543-1.087,1.189-1.631,1.801c-0.604-0.67-1.175-1.33-1.778-1.959
	c-0.249-0.26-0.253-0.412-0.062-0.74c0.378-0.648,0.676-1.35,0.927-2.059c0.076-0.217-0.109-0.529-0.174-0.797
	c-0.221,0.135-0.494,0.225-0.648,0.412c-0.26,0.316-0.442,0.697-0.663,1.047c-0.077,0.121-0.157,0.316-0.258,0.332
	c-0.357,0.055-0.909,0.201-1.05,0.031c-0.312-0.375,0.042-0.715,0.398-0.947c0.312-0.201,0.675-0.355,0.914-0.623
	c0.154-0.172,0.123-0.508,0.175-0.771c-0.238,0.023-0.498-0.006-0.709,0.082c-0.492,0.203-0.945,0.51-1.447,0.678
	c-0.214,0.072-0.568-0.033-0.749-0.188c-0.12-0.104-0.138-0.502-0.033-0.643c0.106-0.143,0.426-0.197,0.642-0.176
	c0.71,0.068,1.401-0.314,1.631-0.971c0.034-0.098,0.048-0.258-0.007-0.316c-0.053-0.057-0.219-0.055-0.313-0.02
	c-0.424,0.154-0.833,0.355-1.263,0.494c-0.616,0.197-1.031,0.014-1.286-0.529c2.006-0.293,3.275-1.551,4.286-3.143
	c-0.03-0.068-0.062-0.135-0.091-0.203c-0.188,0.051-0.422,0.048-0.555,0.163c-0.867,0.753-1.703,1.542-2.574,2.29
	c-0.162,0.139-0.449,0.215-0.665,0.193c-0.809-0.084-1.363,0.387-2.005,0.83c0.211,0.51,0.408,1.021,0.633,1.521
	c0.288,0.637,0.181,0.811-0.58,0.795c0.117-0.162,0.217-0.301,0.358-0.496c-0.923-0.062-1.748-0.533-2.656-0.002
	c-0.027-0.059-0.054-0.119-0.08-0.178c-0.019,0.268-0.037,0.533-0.055,0.793c-0.988-0.604-1.07-0.822-0.774-1.475
	C58.307,82,58.03,81.785,57.753,81.57c0.095-0.111,0.19-0.223,0.285-0.334c-0.155,0.074-0.311,0.148-0.467,0.225
	c-0.054-0.031-0.109-0.062-0.163-0.096c0.117-0.211,0.189-0.551,0.36-0.611c0.421-0.148,0.887-0.17,1.292-0.236
	c-0.172-0.172,0.084-1.016-0.796-0.684c0.376-0.574,0.678-0.627,1.213-0.252c0.575,0.402,1.167,0.783,1.74,1.168
	c0.281-0.217,0.536-0.432,0.81-0.619c0.441-0.299,0.894-0.564,0.597-1.242c-0.047-0.107,0.145-0.413,0.299-0.5
	c0.732-0.418,1.522-0.742,2.229-1.197c0.686-0.44,1.076-1.118,1.121-2.018c-0.328,0.307-0.573,0.629-0.896,0.805
	c-0.238,0.129-0.678,0.194-0.855,0.061c-0.362-0.274-0.006-0.522,0.197-0.758c0.305-0.354,0.582-0.73,0.879-1.107
	c-0.43-0.35-0.759-0.354-1.015-0.002c-0.228,0.312-0.424,0.654-0.589,1.006c-0.343,0.727-0.645,1.473-0.984,2.202
	c-0.292,0.627-0.839,0.925-1.494,0.946c-0.221,0.008-0.594-0.219-0.638-0.401c-0.048-0.198,0.203-0.472,0.331-0.708
	c0.015-0.029,0.073-0.047,0.111-0.047c1.098-0.018,1.273-0.929,1.649-1.668c0.343-0.676,0.745-1.321,1.114-1.984
	c0.067-0.119,0.179-0.305,0.136-0.375c-0.071-0.113-0.301-0.256-0.383-0.217c-0.466,0.221-1.058,0.385-1.331,0.766
	c-0.792,1.105-1.426,2.322-2.177,3.459c-0.363,0.553-0.808,1.066-1.286,1.521c-0.815,0.779-2.155,0.535-2.539-0.413
	c-0.264-0.651-0.041-1.011,0.649-1.047c0.042-0.003,0.085-0.007,0.126,0.001c1.665,0.334,2.477-0.697,3.158-1.957
	c0.274-0.508,0.52-1.051,0.891-1.481c0.518-0.599,1.142-1.104,1.819-1.743c-0.219,0-0.457-0.074-0.553,0.012
	c-0.646,0.569-1.29,1.146-1.88,1.773c-0.657,0.695-1.224,1.477-1.889,2.164c-0.646,0.668-1.751,0.566-2.314-0.119
	c-0.332-0.404-0.304-0.869-0.044-1.207c0.148-0.193,0.593-0.189,0.908-0.213c0.17-0.014,0.352,0.098,0.526,0.158
	c0.444,0.154,0.808,0.123,1.19-0.238c1.03-0.976,2.112-1.896,3.161-2.852c0.131-0.119,0.19-0.318,0.284-0.48
	c-0.05-0.051-0.099-0.103-0.149-0.153c-0.6,0.403-1.227,0.771-1.792,1.218c-0.573,0.453-1.077,0.992-1.625,1.478
	c-0.523,0.462-1.431,0.798-2.164,0.362c-0.445-0.262-0.658-0.609-0.48-1.086c0.175-0.472,0.636-0.585,1.068-0.508
	c0.774,0.141,1.468,0.08,2.12-0.412c0.776-0.584,1.597-1.106,2.37-1.693c0.157-0.119,0.188-0.404,0.276-0.612
	c-0.213,0.047-0.451,0.048-0.635,0.147c-1.066,0.581-2.101,1.223-3.189,1.758c-0.305,0.15-0.767,0.074-1.132-0.008
	c-0.527-0.118-0.899-0.676-0.783-1.036c0.138-0.426,0.88-0.813,1.31-0.56c1.656,0.977,2.776,0.055,3.869-1.013
	c0.125-0.122,0.184-0.312,0.163-0.56c-0.448,0.242-0.881,0.519-1.347,0.721c-1.078,0.468-2.176,0.692-3.284,0.077
	c-0.144-0.079-0.344-0.159-0.393-0.288c-0.132-0.348-0.198-0.723-0.29-1.086c0.326-0.018,0.651-0.038,0.977-0.051
	c0.061-0.002,0.14,0.003,0.182,0.039c1.309,1.125,2.613,0.383,3.91-0.02c0.15-0.047,0.253-0.246,0.293-0.505
	c-0.672,0.146-1.342,0.306-2.018,0.434c-1.008,0.188-2.674-0.334-3.112-1.443c-0.086-0.22-0.042-0.704,0.061-0.741
	c0.267-0.098,0.699-0.135,0.887,0.02c0.784,0.643,1.61,1.181,2.63,1.285c0.412,0.042,0.851-0.09,1.264-0.199
	c0.109-0.027,0.163-0.264,0.3-0.51c-0.61,0-1.09,0.01-1.569-0.002c-1.372-0.037-2.474-0.637-3.069-1.852
	c-0.311-0.634-0.303-1.436-0.367-2.169c-0.014-0.163,0.253-0.455,0.435-0.498c0.162-0.037,0.471,0.142,0.565,0.309
	c0.432,0.771,0.774,1.592,1.219,2.355c0.437,0.751,1.588,1.205,2.388,0.943c0.23-0.075,0.375-0.412,0.558-0.629
	c-0.017-0.069-0.034-0.139-0.051-0.208c0.962,0.12,1.936,0.188,2.885,0.376c0.831,0.166,1.3,0.769,1.431,1.605
	c0.024,0.15-0.042,0.323-0.1,0.473c-0.052,0.131-0.201,0.238-0.219,0.367c-0.043,0.33-0.072,0.67-0.028,0.995
	c0.012,0.088,0.404,0.237,0.455,0.188c0.254-0.247,0.592-0.526,0.646-0.839c0.24-1.379-0.535-2.798-1.761-3.526
	c-0.687-0.408-1.356-0.418-2.136-0.337c-1.103,0.115-2.27,0.25-3.29-0.414c-0.219-0.143-0.421-0.39-0.506-0.633
	c-0.06-0.171,0.092-0.417,0.149-0.629c0.226,0.067,0.552,0.063,0.658,0.214c0.337,0.482,0.724,0.858,1.323,0.918
	c0.292,0.029,0.594-0.036,0.892-0.059C62.336,62.97,62.341,62.908,62.345,62.847z M74.563,62.164
	c-0.003-0.129-0.004-0.258-0.006-0.387c-0.344,0.02-0.688,0.037-1.029,0.07c-0.008,0.001-0.006,0.256,0.004,0.257
	C73.875,62.134,74.219,62.147,74.563,62.164z M64.83,62.136c-0.003-0.125-0.006-0.249-0.01-0.375
	c-0.348,0.019-0.695,0.038-1.043,0.057c0.004,0.105,0.007,0.212,0.01,0.317C64.135,62.136,64.482,62.136,64.83,62.136z"/>
<polygon fill-rule="evenodd" clip-rule="evenodd" fill="none" stroke="#FEDD13" stroke-width="0.5" stroke-miterlimit="10" points="
	70.87,52.008 74.668,52.645 71.852,55.271 72.419,59.079 69.051,57.213 65.605,58.93 66.338,55.15 63.642,52.402 67.464,51.932 
	69.243,48.518 "/>
</svg>
