<?xml version="1.0" encoding="utf-8"?>
<!-- Generator: Adobe Illustrator 16.2.1, SVG Export Plug-In . SVG Version: 6.00 Build 0)  -->
<!DOCTYPE svg PUBLIC "-//W3C//DTD SVG 1.1//EN" "http://www.w3.org/Graphics/SVG/1.1/DTD/svg11.dtd">
<svg version="1.1" id="Layer_1" xmlns="http://www.w3.org/2000/svg" xmlns:xlink="http://www.w3.org/1999/xlink" x="0px" y="0px"
	 width="100px" height="100px" viewBox="0 0 100 100" enable-background="new 0 0 100 100" xml:space="preserve">
<rect x="5" y="20" fill="none" stroke="#000000" stroke-width="0.5" stroke-miterlimit="10" width="90" height="60"/>
<line fill="none" stroke="#000000" stroke-width="0.5" stroke-miterlimit="10" x1="5" y1="20" x2="95" y2="80"/>
<line fill="none" stroke="#000000" stroke-width="0.5" stroke-miterlimit="10" x1="5" y1="80" x2="95" y2="20"/>
<g>
	<rect x="-143.667" y="-171.835" fill="#FFFFFF" width="30" height="60"/>
	<rect x="-173.667" y="-171.835" fill="#0055A4" width="30" height="60"/>
	<rect x="-113.667" y="-171.835" fill="#FA3C32" width="30" height="60"/>
</g>
<g>
	<rect x="-143.667" y="-75.918" fill="#FFFFFF" width="30" height="60"/>
	<rect x="-173.667" y="-75.918" fill="#FF7900" width="30" height="60"/>
	<rect x="-113.667" y="-75.918" fill="#009A49" width="30" height="60"/>
</g>
<g>
	<rect x="-143.667" y="20" fill="#FFDD17" width="30" height="60"/>
	<rect x="-173.667" y="20" fill="#003D7B" width="30" height="60"/>
	<rect x="-113.667" y="20" fill="#E33D3A" width="30" height="60"/>
</g>
<g>
	<rect x="-173.667" y="155.917" fill="#EE3124" width="90" height="20"/>
	<rect x="-173.667" y="135.917" fill="#FFFFFF" width="90" height="20"/>
	<rect x="-173.667" y="115.917" fill="#EE3124" width="90" height="20"/>
</g>
<g>
	<rect x="-173.667" y="251.835" fill="#FDBB30" width="90" height="20"/>
	<rect x="-173.667" y="231.835" fill="#005DAA" width="90" height="20"/>
	<rect x="-173.667" y="211.835" fill="#EE3124" width="90" height="20"/>
</g>
<g>
	<g>
		<line fill="none" stroke="#33CCFF" stroke-miterlimit="10" x1="90.43" y1="50" x2="197.5" y2="50"/>
		<g>
			<circle fill="#33CCFF" cx="90.504" cy="50" r="1.504"/>
		</g>
	</g>
</g>
<rect x="209" y="37" fill="none" width="128.5" height="73.75"/>
<rect x="209.5" y="39.004" fill="none" width="134" height="25"/>
<text transform="matrix(1 0 0 1 209.5 46.2036)"><tspan x="0" y="0" font-family="'Helvetica-Light'" font-size="10">Please make your flag this </tspan><tspan x="0" y="12" font-family="'Helvetica-Light'" font-size="10">exact size, 90 x 60pts. </tspan></text>
</svg>
